<?xml version="1.0" encoding="UTF-8"?>
<svg id="Layer_2" data-name="Layer 2" xmlns="http://www.w3.org/2000/svg" viewBox="0 0 480 480">
  <defs>
    <style>
      .cls-1 {
        fill: #f3f3f3;
      }

      .cls-2 {
        fill: #f3f3e9;
      }

      .cls-3 {
        fill: #f3f3f2;
      }

      .cls-4 {
        fill: #f3f2f2;
      }

      .cls-5 {
        fill: #f3f2f1;
      }

      .cls-6 {
        fill: #f3ed08;
      }

      .cls-7 {
        fill: #f3ec17;
      }

      .cls-8 {
        fill: #f6f5f5;
      }

      .cls-9 {
        fill: #f6ee00;
      }

      .cls-10 {
        fill: #f6f6f6;
      }

      .cls-11 {
        fill: #f7f6f6;
      }

      .cls-12 {
        fill: #f7f7f5;
      }

      .cls-13 {
        fill: #f7f7f6;
      }

      .cls-14 {
        fill: #f7f7f7;
      }

      .cls-15 {
        fill: #f7f7ee;
      }

      .cls-16 {
        fill: #f2f2f1;
      }

      .cls-17 {
        fill: #f2f2f2;
      }

      .cls-18 {
        fill: #f2f1f1;
      }

      .cls-19 {
        fill: #f9f9f9;
      }

      .cls-20 {
        fill: #f9f709;
      }

      .cls-21 {
        fill: #f8f5b0;
      }

      .cls-22 {
        fill: #f8f5a0;
      }

      .cls-23 {
        fill: #f8f8f8;
      }

      .cls-24 {
        fill: #f8f7f7;
      }

      .cls-25 {
        fill: #040400;
      }

      .cls-26 {
        fill: #010100;
      }

      .cls-27 {
        fill: #010101;
      }

      .cls-28 {
        fill: #030303;
      }

      .cls-29 {
        fill: #050505;
      }

      .cls-30 {
        fill: #050502;
      }

      .cls-31 {
        fill: #020202;
      }

      .cls-32 {
        fill: #020200;
      }

      .cls-33 {
        fill: #eeeded;
      }

      .cls-34 {
        fill: #eeedea;
      }

      .cls-35 {
        fill: #eee;
      }

      .cls-36 {
        fill: #ebebe4;
      }

      .cls-37 {
        fill: #ebebeb;
      }

      .cls-38 {
        fill: #ebeaea;
      }

      .cls-39 {
        fill: #f0f0f0;
      }

      .cls-40 {
        fill: #eae9e8;
      }

      .cls-41 {
        fill: #eaeae9;
      }

      .cls-42 {
        fill: #eaeaea;
      }

      .cls-43 {
        fill: #f4f076;
      }

      .cls-44 {
        fill: #e9e9e9;
      }

      .cls-45 {
        fill: #f4f4f4;
      }

      .cls-46 {
        fill: #f5ed08;
      }

      .cls-47 {
        fill: #f5ed00;
      }

      .cls-48 {
        fill: #f5f5f5;
      }

      .cls-49 {
        fill: #f5f3c3;
      }

      .cls-50 {
        fill: #f5f4f4;
      }

      .cls-51 {
        fill: #fcfcfc;
      }

      .cls-52 {
        fill: #e7e7e7;
      }

      .cls-53 {
        fill: #e7e7e6;
      }

      .cls-54 {
        fill: #e7e6e6;
      }

      .cls-55 {
        fill: #e6e5e5;
      }

      .cls-56 {
        fill: #e3e2e2;
      }

      .cls-57 {
        fill: #e3e3e3;
      }

      .cls-58 {
        fill: #ededed;
      }

      .cls-59 {
        fill: #edecec;
      }

      .cls-60 {
        fill: #e2e1e1;
      }

      .cls-61 {
        fill: #e8e7e6;
      }

      .cls-62 {
        fill: #e8e8e8;
      }

      .cls-63 {
        fill: #e8e7e2;
      }

      .cls-64 {
        fill: #e8e7e7;
      }

      .cls-65 {
        fill: #f1f1f1;
      }

      .cls-66 {
        fill: #fefefe;
      }

      .cls-67 {
        fill: #fbfafa;
      }

      .cls-68 {
        fill: #fafafa;
      }

      .cls-69 {
        fill: #fafaf9;
      }

      .cls-70 {
        fill: #fefc09;
      }

      .cls-71 {
        fill: #fefa09;
      }

      .cls-72 {
        fill: #fefd09;
      }

      .cls-73 {
        fill: #fbfbfa;
      }

      .cls-74 {
        fill: #fbfbfb;
      }

      .cls-75 {
        fill: #fbfa09;
      }

      .cls-76 {
        fill: #e5e007;
      }

      .cls-77 {
        fill: #e5e4e4;
      }

      .cls-78 {
        fill: #e2e1d7;
      }

      .cls-79 {
        fill: #faf9f9;
      }

      .cls-80 {
        fill: #efefec;
      }

      .cls-81 {
        fill: #efefef;
      }

      .cls-82 {
        fill: #e4e196;
      }

      .cls-83 {
        fill: #efeeee;
      }

      .cls-84 {
        fill: #e4e3e3;
      }

      .cls-85 {
        fill: #e4e3df;
      }

      .cls-86 {
        fill: #fdfdfd;
      }

      .cls-87 {
        fill: #fdfc09;
      }

      .cls-88 {
        fill: #fdfa09;
      }

      .cls-89 {
        fill: #919191;
      }

      .cls-90 {
        fill: #969696;
      }

      .cls-91 {
        fill: #999;
      }

      .cls-92 {
        fill: #989898;
      }

      .cls-93 {
        fill: #979797;
      }

      .cls-94 {
        fill: #9c9c9c;
      }

      .cls-95 {
        fill: #9f9f9f;
      }

      .cls-96 {
        fill: #929292;
      }

      .cls-97 {
        fill: #b5b5b5;
      }

      .cls-98 {
        fill: #9d9d9d;
      }

      .cls-99 {
        fill: #9e9e9e;
      }

      .cls-100 {
        fill: #8f8f8f;
      }

      .cls-101 {
        fill: #8d8d8d;
      }

      .cls-102 {
        fill: #8e8e8e;
      }

      .cls-103 {
        fill: #8c8b8b;
      }

      .cls-104 {
        fill: #8c8c8c;
      }

      .cls-105 {
        fill: #939393;
      }

      .cls-106 {
        fill: #858585;
      }

      .cls-107 {
        fill: #b0b0b0;
      }

      .cls-108 {
        fill: #dedddd;
      }

      .cls-109 {
        fill: #dddddb;
      }

      .cls-110 {
        fill: #d5d207;
      }

      .cls-111 {
        fill: #dcd807;
      }

      .cls-112 {
        fill: #dcdcdc;
      }

      .cls-113 {
        fill: #dcd707;
      }

      .cls-114 {
        fill: #dbd807;
      }

      .cls-115 {
        fill: #dadae0;
      }

      .cls-116 {
        fill: #d9d9d9;
      }

      .cls-117 {
        fill: #afafaf;
      }

      .cls-118 {
        fill: #e0e0da;
      }

      .cls-119 {
        fill: #e0dfde;
      }

      .cls-120 {
        fill: #dfdfdf;
      }

      .cls-121 {
        fill: #dfdfdb;
      }

      .cls-122 {
        fill: #414253;
      }

      .cls-123 {
        fill: #0d0c03;
      }

      .cls-124 {
        fill: #191902;
      }

      .cls-125 {
        fill: #9b9b9b;
      }

      .cls-126 {
        fill: #949494;
      }

      .cls-127 {
        fill: #a2a2a2;
      }

      .cls-128 {
        fill: #959595;
      }

      .cls-129 {
        fill: #9a9a9a;
      }

      .cls-130 {
        fill: #878787;
      }

      .cls-131 {
        fill: #838383;
      }

      .cls-132 {
        fill: #494848;
      }

      .cls-133 {
        fill: #7a7a7a;
      }

      .cls-134 {
        fill: #787554;
      }

      .cls-135 {
        fill: #828282;
      }
    </style>
  </defs>
  <g id="Layer_1-2" data-name="Layer 1">
    <g>
      <path class="cls-66" d="M.1,240C.1,161.36,.12,82.73,0,4.09,0,.67,.67,0,4.09,0,161.37,.11,318.64,.11,475.91,0c3.42,0,4.1,.67,4.09,4.09-.11,157.27-.11,314.54,0,471.81,0,3.42-.67,4.1-4.09,4.09-157.27-.11-314.54-.11-471.81,0-3.42,0-4.1-.67-4.09-4.09,.12-78.64,.1-157.27,.1-235.91Z"/>
      <path class="cls-46" d="M96.16,303.71c-.22-1.1-.45-2.19-.71-3.45,5.14,1.3,10.19,2.57,15.23,3.84,2.43,.25,4.65,1.59,7.17,1.38,2.47,.2,4.73,1.27,7.15,1.68,2.31,.79,4.63,1.55,7.12,1.56,1.54,.09,2.97,.53,4.33,1.23,3.44,1.52,7.21,1.9,10.74,3.13,4.56,1.65,9.51,2.1,13.82,4.51,.34,.41,.53,.89,.58,1.42-.12,4.51-.82,9.04,.36,13.52,.38,.37,.8,.65,1.29,.84,10.11,.07,20.21,.96,30.27-.56,12.87-.4,25.74-.41,38.61-.02,3.22,1.06,6.44,1.03,9.67,.01,12.86-.37,25.72-.44,38.58,.01,8.74,1.61,17.56,.55,26.34,.71,10.5,.2,10.5,.05,9.85-10.49-.07-1.17-.2-2.32-.78-3.36-.2-.54-.22-1.09-.07-1.64,2.34-2.17,5.56-1.88,8.28-2.99,5.36-1.23,10.7-2.56,15.98-4.07,8.07-1.64,16.03-3.76,24.1-5.38,6.54-.95,12.78-3.23,19.25-4.49,2.42-.11,6.42-1.81,3.49,3.46-.98,2.51-2.6,4.74-3.17,7.43-1.08,1.65-2.18,3.28-2.97,5.09-.72,1.32-1.37,2.68-2.03,4.04-.72,1.33-1.36,2.7-2.03,4.06-.62,1.18-1.31,2.31-2.02,3.44-2.84,4.12-4.57,8.24-.16,12.44,.64,.87,1.35,1.68,1.98,2.56,.67,1.06,1.35,2.1,2.08,3.12,.64,1.06,1.36,2.08,2.08,3.1,.68,1.09,1.44,2.14,2.19,3.19,1.04,2.97,5.44,4.91,2.81,9.02-.34,.3-.72,.53-1.14,.72-.81,.32-1.64,.58-2.47,.87-.99,.33-2,.63-2.99,.99-.99,.33-2,.63-2.96,1.07-.81,.38-1.61,.77-2.44,1.11-1.14,.43-2.27,.87-3.41,1.31-5.55,2.26-11.17,4.32-16.76,6.46-5.2,2-6.21,1.31-6.44-4.07-.15-3.49-1.17-6.89-1.02-10.39,0-1.8,0-3.6,0-4.46-.16,4.17-.02,9.26,.96,14.32,.04,6.97,1.43,13.95-.38,20.87-1.44,2.29-3.76,2.41-6.1,2.48-65.32,.01-130.65,0-195.97,.02-3.75-.31-7.61,.66-11.26-.88-1.1-.91-1.46-2.18-1.46-3.52-.03-12.05-.44-24.11,.22-36.11-.68,1.86-.57,3.76-.58,5.64,.44,4.49-1.01,8.81-1.11,13.25-.08,3.68-2.24,4.47-5.37,3.34-5.11-1.85-10.12-3.95-15.16-5.96-1.77-.79-3.5-1.71-5.37-2.28-1.05-.4-2.12-.77-3.18-1.13-1.02-.37-2.05-.7-3.07-1.07-.8-.31-1.58-.68-2.37-1.02-.98-.44-2.04-.77-2.62-1.79v.04c-2.8-1.66-1.23-3.26,.09-4.85l-.06,.08c1.54-2.46,3.09-4.92,5.02-7.1v.05c.45-1.6,.67-3.3,1.92-4.57,.84-.87,1.55-1.84,2.22-2.85,.44-.68,.84-1.39,1.23-2.11,.52-.94,1.16-1.78,1.84-2.6,2-2.32,.8-4.49-.29-6.67-.94-1.58-1.22-3.43-2.07-5.04-1.09-1.83-1.11-3.97-1.72-5.94-.31-1.08-.62-2.17-.99-3.23-.82-1.64-.44-3.54-1.17-5.2l.04,.08c-1.48-2.57-1.96-5.51-3.04-8.23Z"/>
      <path d="M270.99,98.06c-.85-1.4-1.9-2.68-1.96-4.46-.09-2.41,.09-5.03,2.08-6.33,1.79-1.17,3.12,1.24,4.46,2.2,26.01,18.64,51.95,37.38,77.97,56.02,2.1,1.5,3.45,3.4,4.62,5.56,1.15,4.91,1.64,9.86,.9,14.89-1.68,6.85-.89,13.9-1.37,20.83-.93,13.56-1.71,27.16-2.41,40.75-.88,17.06-2.07,34.11-3.03,51.18-.11,2.05-.97,3.85-1.91,5.63-1.63,2.52-4.28,3.58-6.86,4.72-16.38,6.9-32.54,14.3-48.77,21.55-2.59,1.15-4.95,2.71-7.21,4.42-4.59,3.48-7,7.82-6.13,13.78,.24,1.66,1.51,4.15-1.77,4.67-13-.06-25.99,.07-38.97-.06-2.29-1.35-1.94-3.68-2.02-5.78-.2-4.85,.44-9.61,1.84-14.26,.69-1.6,1.65-3.06,2.42-4.62,.21-.42,.46-.81,.73-1.2,.4-.56,.85-1.09,1.28-1.63,1.78-2.76,4.39-4.63,6.95-6.57,2.15-1.28,4.65-1.76,6.81-3.01,.81-.42,1.63-.82,2.44-1.23,2.33-1.07,4.79-1.84,7.09-2.98,8.66-3.21,16.98-7.2,25.39-10.99,1.84-.48,3.64-1.07,5.36-1.9,5.9-2.34,11.65-5.02,17.37-7.76,.81-.4,1.64-.78,2.45-1.18,2.99-1.35,5.95-2.75,8.09-5.38,.27-.35,.56-.68,.83-1.03,.23-.39,.47-.78,.69-1.18,.56-1.94,.21-3.9,.19-5.86,.54-9.85,1.9-19.63,2.32-29.49,1.45-5.34,1.07-10.89,1.49-16.31,1.33-17.19,2.62-34.39,4-51.58,.33-4.12-.62-7.58-4.08-10.1-2.02-1.47-3.65-3.4-5.71-4.82-.69-.32-1.32-.74-1.87-1.27-1.16-1.35-2.29-2.75-4.03-3.44-1.47-.88-2.47-2.34-3.95-3.21-1.17-.91-2.42-1.73-3.41-2.85-.88-1.18-1.93-2.18-3.23-2.91-.37-.22-.71-.49-1.05-.76-1.75-1.64-3.38-3.42-5.52-4.57-5.58-3.85-10.2-8.88-15.71-12.82-2.32-2-4.89-3.71-7.24-5.67-.96-.81-1.89-1.67-3.05-2.19-.98-.5-1.75-1.23-2.37-2.11-.8-1.27-1.93-2.21-3.14-3.07-.53-.42-.63-1.11-1.02-1.62Z"/>
      <path d="M115.99,149.02c11.62-8.52,23.22-17.08,34.88-25.54,15.82-11.48,31.65-22.94,47.58-34.26,1.35-.96,2.92-3.88,5.28-1.07,2.48,3.29,1.54,6.59,.02,9.88-4.17,3.49-7.92,7.47-12.4,10.6-8.75,6.72-17.13,13.9-25.75,20.77-1.51,.94-2.92,2-4.13,3.32-2.4,2.03-4.97,3.86-7.28,6-4.57,3.23-8.63,7.1-13.04,10.53-1.58,1.23-2.81,2.77-3.39,4.74-1.16,3.84,.95,7.48,.68,11.27,.1,3.22-.45,6.46,.54,9.63,.28,1.09,.37,2.19,.4,3.31,.23,3.9-.49,7.85,.64,11.7,.16,.56,.25,1.13,.3,1.71,1.22,24.09,3.01,48.14,5.51,72.12,.2,.46,.43,.91,.71,1.33,.75,1.54,2.03,2.5,3.58,3.14,8.31,3.64,16.41,7.75,24.89,10.99,2.17,1.06,4.46,1.82,6.68,2.76,8.67,3.8,17.36,7.57,26.16,11.07,1.61,.91,3.3,1.62,5.05,2.21,1.45,.64,2.86,1.35,4.28,2.04,2.19,1.18,4.21,2.63,6.29,3.99,3.55,2.16,6.15,5.22,8.29,8.73,.27,.48,.47,.97,.62,1.5,2.3,5.86,2.13,11.97,1.91,18.08-.05,1.48-.17,3.01-1.75,3.84-12.9,.1-25.79,.04-38.68,.03-1.51-.24-1.64-1.42-1.75-2.6,.36-3.03,1.17-6.07-.23-9.05-2.38-5.58-7.12-8.66-12.27-11.07-14.7-6.88-29.72-13.04-44.47-19.79-1.66-.95-3.44-1.63-5.25-2.25-.94-.38-1.84-.84-2.67-1.43-5.23-3.33-5.32-8.94-6.3-14.16-.8-5.49,.53-11.11-1.03-16.55-.76-14.11-1.65-28.22-2.41-42.33-.8-14.77-2.26-29.51-1.91-44.34,.02-1.01-.37-1.96-.6-2.93,1.09-5.93,.07-11.98,1.01-17.92Z"/>
      <path class="cls-68" d="M384.82,361.7c1.45-1.18,1.2-2.25,.07-3.61-1.21-1.46-2.09-3.2-3.11-4.81-.9-6.26,4.11-10.21,6.1-15.34,1.01-2.6,2.67-4.97,3.31-7.75,1.49-6.5-.08-10.04-6.1-12.93-2.69-1.29-4.24-2.6-2.25-5.57,.85-2.63,2.23-4.97,3.97-7.11-.07,.65,.05,1.41-.24,1.95-1.4,2.56-1.78,3.84,2.02,5.01,10.03,3.08,11.34,13.05,6.9,23.23-1.52,3.49-3.45,6.83-5.52,10.04-4.1,6.35-2.92,12.07,1.13,17.99,2.81,4.1,4.83,8.59,4.93,13.88,.14,6.87-3.3,11.4-8.78,14.53-5.62,3.21-11.64,5.48-18.03,6.94-5.16,1.17-9,4.59-10.61,9.69-3.2,10.16-10.84,14.01-20.49,14.03-64.47,.15-128.94,.12-193.42,.04-10.25-.01-16.06-4.4-19.74-13.72-2.73-6.91-8.5-9.65-15.32-11.29-7.62-1.83-14.96-4.42-19.47-11.64-4.05-6.49-3.28-12.84,.39-19.14,.83-1.43,1.73-2.83,2.59-4.25,1.11-.04,2.11,.24,2.93,1.03,1.97,2.81-.22,5.12-1.06,7.46-2.83,7.83-.54,14.04,7.04,17.62,5.4,2.55,10.83,5.01,16.49,7.01,5.24,1.85,8.45,6.31,11.57,10.61,1.37,1.89,2.65,3.8,4.41,5.37,3.44,4.14,7.82,5.66,13.2,5.65,61.37-.09,122.75-.05,184.12-.05,3,0,5.96-.44,8.92-.75,4.72-.49,9.13-2.49,10.72-7.03,3.83-10.93,13.06-14.21,22.65-17.34,4.27-1.39,8.29-3.22,11.52-6.64,5.23-5.53,5.92-10.91,2.08-17.61-1.02-1.78-3.33-2.93-2.92-5.48Z"/>
      <path class="cls-31" d="M232.87,132.99c3.16-2.4,2.08-5.26,.7-7.99-1.13-2.23-1.13-4.23,.73-5.85,1.5-1.31,3.38-1.36,5.08-.2,2.15,1.47,2.04,3.4,1.3,5.7-.89,2.76-1.98,5.68,.42,8.34,4.22,1.15,8.52,.44,12.78,.52,13.21,.24,26.41-.01,39.6-.66,1.54,.29,2.73,1.17,3.76,2.3,.7,.94,1.38,1.9,.71,3.15-.45,.38-.97,.64-1.53,.8-1.16,.28-2.34,.28-3.52,.31-14.96,.22-29.92,.26-44.88,.03-1.82-.03-3.66-.19-5.43,.41-.77,.44-1.37,1.05-1.78,1.85-.89,11.98-.09,23.97-.41,35.94-.22,8.3,.7,16.64-.57,24.92-2.07,2.94-4.23,2.52-6.44,.17-1.07-2.18-.78-4.53-.76-6.82,.12-16.53-.27-33.05-.03-49.57,.03-1.81,.2-3.64-.4-5.4-.47-.77-1.16-1.24-2.07-1.4-15.92,.11-31.82,.01-47.73-.1-.98,.08-1.92-.13-2.85-.39-2.58-2.85-1.68-5.52,2.47-6.11,4.4-.62,8.86-.2,13.33,.1,12.5,.83,25.03,.98,37.54-.07Z"/>
      <path class="cls-68" d="M383.32,301.1c-6.22,2.19-12.58,3.88-19.09,4.99-2.74,.25-5.26,2.03-8.16,1.16-1.06-1.72-.09-3.23,.61-4.68,2.62-5.49,3.54-11.13,3.39-17.29-.13-5.37,.63-10.89,1.19-16.2,.83-7.87-.18-15.9,1.91-23.64,.26-.98,.44-1.98,.3-2.96-.79-5.45,.35-10.74,.77-16.14,1.42-17.98,1.61-36.06,1.45-54.11-.05-5.65-4.11-9.23-7.08-13.36,.05-1.64-.8-3.39,.59-4.87,7.79,4.17,11.86,14.85,12.27,23.22,.4,8.25-.78,16.33-.87,24.47-.1,8.98-1.12,18.08-1.82,27.1-.61,7.83-2.58,15.54-1.27,23.74,.9,5.62,.09,11.93-.75,17.77-.97,6.74,1.1,13.41-.61,20.17-.88,3.47-1.23,7.18-2.41,10.61-1.18,3.43-.36,4.24,3.12,3.46,5.47-1.21,10.72-3.54,16.47-3.46Z"/>
      <path class="cls-38" d="M359.19,154.01l-.23,5.02c1.25,1.44,1.46,3.17,1.39,4.98,.02,.83-.12,1.71,.13,2.49,5.37,17.14,.71,34.34,.21,51.48-.39,13.46-1.59,26.89-2.35,40.34-.63,10.94-.49,21.93-1.74,32.83-1.12,9.79-7.21,15.7-15.53,19.87-.47,.23-.81,.53-.87,1.06-5.23,1.8-10.6,3.05-16.06,3.95-.8,.46-1.81,.61-2.1-.32-.41-1.31,.66-2.17,1.7-2.68,4.16-2.06,8.17-4.44,12.51-6.15,11.16-4.4,14.74-10.89,14.78-23.07,.03-9.73,1.15-19.48,1.8-29.21,.96-14.22,1.65-28.45,2.62-42.67,1.05-15.36,1.95-30.74,2.43-46.13,.09-4.93,.18-9.85,.27-14.78,1.05,.74,.83,1.93,1.05,2.97Z"/>
      <path class="cls-42" d="M232.87,132.99c-1.23,1.76-3.06,.89-4.59,.9-14.49,.06-28.97,.12-43.46-.07-2.81-.04-5.01,.72-6.4,2.87-1.07,1.65,.95,.98,1.59,1.35,.32,.43,.32,.86,0,1.29-.6,.46-1.28,.68-2.02,.76-.96,.08-1.9-.03-2.81-.38-.43-.21-.76-.55-1.14-.82-.2-.14-.08-.89-.66-.42,.27,.17,.47,.41,.59,.74,1,3.25-1.6,4.42-3.46,5.91-10.22,8.22-20.42,16.45-28.54,26.9-2.17,2.93-3.62,2.71-4.29-.97,.67-3.78,3.64-5.94,6.15-8.31,6.15-5.78,12.11-11.72,17.55-18.3-3.75,.59-6.68,2.66-9.67,4.58-3.08,1.98-6.05,4.13-9.17,6.06-1.48,.92-2.97,2.43-4.93,.85-1.06-2.72,.87-4.02,2.65-5.2,15.48-10.28,30.86-20.71,46.74-30.36,1.87-1.14,4.17-2.21,5.94-.3,1.98,2.13,.2,4.13-1.36,5.56-2.83,2.6-4.79,6.56-8.82,6.88,1.39,.45,3.19-1.18,5.16-.81,2.75,.26,5.7-.77,8.19,1.22,12.24,.03,24.49,.06,36.73,.09Z"/>
      <path class="cls-74" d="M115.99,149.02c-.96,5.92,.63,11.81,.16,17.72,.75,2.09,.29,4.26,.35,6.39,.02,.73,.15,1.86-1.1,1.73-.95-.1-1.02-1.17-1.61-1.85,1.83,7.78-1,15.65,.67,23.45-.04,5.95-.14,11.89-.89,17.81-.84,6.58,1.95,12.98,.97,19.59-.29,1.94,.09,3.99-.98,5.8-.41,.54-.91,.66-1.51,.34-1.47-1.93-1.8-4.29-1.93-6.52-.78-13.9-1.14-27.82-2.18-41.7-.56-7.45-1.61-14.81,.08-22.23,.7-3.09,1.67-6.03,3.61-8.59,1.91-2.53,2.29-.28,3.03,1.3,1.21-4.56-.91-9.13,1.32-13.24Z"/>
      <path class="cls-67" d="M202.91,97.77c2.27-3.03,1.77-6.31,.82-9.61,2.1,1.11,2.8,3.25,2.13,5.07-1.33,3.64,.11,4.78,3.37,5.86,5.24,1.73,7.94,7.11,7.77,14.13-.22,9.17-8.79,18.67-16.99,18.82-1.4-2.65,.83-3.92,2.19-5.39,2.36-2.56,4.92-4.93,6.35-8.2,2.81-6.37,1.23-10.9-4.88-13.98-4.94-2.49-4.94-2.54-.76-6.7Z"/>
      <path class="cls-69" d="M112.05,240h1c3.66,1.42,2.84,5.05,3.04,7.57,.86,10.63,1.39,21.29,1.71,31.97,.2,6.7,1.55,13.46,3.64,19.96,.7,2.17,1.79,4.35,.58,6.71-1.44,.47-2.87,.36-4.29-.12-2.51-.1-4.82-.88-7.05-1.99,2.17-.61,4.17,.61,6.38,.69-4.3-17.47-4.68-35.09-4.01-52.8-1.64-2.5-.76-5.32-1-8,0-1.33,0-2.67,0-4Z"/>
      <path class="cls-68" d="M270.99,98.06c.36,.26,.71,.53,1.07,.79,1.12,1.19,2.48,2.11,3.68,3.21,.75,.68,1.5,1.35,2.25,2.03,.04,2.13-1.74,1.45-2.82,1.79-3.8,1.2-6.23,4.9-5.36,8.78,1.07,4.77,3.12,9.01,7.55,11.72,2.06,1.26,4.48,2.46,3.65,5.66-8.44,1.33-12.06-5.12-15.51-10.57-3.38-5.33-3.25-11.62-.42-17.57,1.28-2.69,4.81-3.03,5.93-5.84Z"/>
      <path class="cls-14" d="M202.91,97.77c-.74,1.25-1.48,2.5-2.33,3.93,.75,.4,1.41,.94,2.17,1.13,10.1,2.57,9.77,11.48,6.02,18.06-1.51,2.66-3.8,4.57-5.82,6.75-1.22,1.3-2.93,2.3-2.93,4.41-1.32,.16-2.81-.47-3.87,.86-2.99,0-5.98,.01-8.98,.02-.25-1.47,.93-1.58,1.84-1.95,8-1.69,12.89-7.37,16.15-14.1,2.57-5.29-1.32-9.12-7.16-7.89-1.29,.27-2.53,.91-3.86,.91-1.5,0-3.56,.55-3.27-2.21,4.02-3.31,8.03-6.61,12.05-9.92Z"/>
      <path class="cls-73" d="M99.15,311.86c1.22,1.46,1.69,3.21,1.93,5.05,.56,.78,.57,1.57-.17,2.18-4.45,3.63-4.71,8.16-3.54,13.43,1,4.48,2.3,8.85,3.62,13.23-.83,1.51-1.2,3.31-2.81,4.32-2.7-6.68-6.09-13.09-7.69-20.21-1.81-8.08,.95-13.82,8.39-17.07,.19-.08,.18-.61,.26-.92Z"/>
      <path class="cls-10" d="M280.99,132.04c-.85-1.8-1.68-3.51-3.74-4.39-4.08-1.76-6.2-5.23-7.61-9.25-3.01-8.52-.34-13.12,8.34-14.31,1.87-.45,1.7,1.83,2.96,2.21-.31,2.2-2.44,1.87-3.75,2.63-2.52,1.47-3.96,3.32-3.25,6.45,1.51,6.71,10.96,14.99,17.94,15.57,.91,.6,3.2,.32,1.64,2.52-3.19-.26-6.46,.8-9.58-.59-.76-1.04-1.9-.8-2.94-.84Z"/>
      <path class="cls-37" d="M283.93,132.88c3.31,.02,6.62,.05,9.93,.07,1.01-.2,1.37,.2,1.09,1.19-16.28-.07-32.56-.1-48.83-.27-1.65-.02-3.64,1.03-5.02-.87,14.28-.04,28.56-.08,42.83-.12Z"/>
      <path class="cls-74" d="M112.05,244c2,2.46,.56,5.34,1,8-3.02-2.33-2.44-5.11-1-8Z"/>
      <path class="cls-73" d="M98.2,350.01c-1.24,2.67-2.8,5.12-5.02,7.1,.69-3.06,2.14-5.58,5.02-7.1Z"/>
      <path class="cls-73" d="M96.16,303.71c1.59,2.53,2.55,5.29,3.04,8.23-2.43-2.22-2.95-5.14-3.04-8.23Z"/>
      <path class="cls-68" d="M93.24,357.03c-.52,1.61-2.12,3.2-.08,4.85-3.98-1.68-2.32-3.27,.08-4.85Z"/>
      <path class="cls-1" d="M98.11,363.66c1.14,0,2.16,.32,3.01,1.1,.32,.53,.44,1.11,.37,1.72-.16,.82-.52,1.57-.83,2.34-2.87,7.29-1.53,11.48,5.24,15.53,4.01,2.4,8.37,4.17,12.89,5.24,7.37,1.74,12.67,5.9,15.48,12.83,2.8,6.89,7.9,9.16,14.95,9.15,61.6-.08,123.2-.05,184.8-.04,5.65,0,10.52-1.39,13.45-6.73,.11-.53,.28-1.04,.51-1.53,5.35-10.24,15.43-13.54,25.28-17.17,.85-.47,1.72-.91,2.61-1.3,9.09-4.18,10.49-7.75,6.65-16.92-.68-1.63-1.99-3.21-.66-5.12,.68-.26,1.37-.53,2.05-.79,.45,1.12,1.48,1.78,2.16,2.72,5.78,8.02,4.05,17.55-4.21,22.99-4.65,3.06-10,4.5-15.16,6.33-5.91,2.1-10.49,5.28-13.11,11.31-3.81,8.75-11.36,11.54-20.31,11.56-10.33,.02-20.66,0-30.99,0-50.48,0-100.96,0-151.44,0-5.92,0-11.68-.52-16.23-4.97-2.97-2.75-4.47-6.52-6.65-9.82-2.39-3.6-5.55-5.96-9.59-7.47-5.1-1.91-10.26-3.7-15.13-6.21-10.09-5.2-12.27-11.91-6.8-21.76,.56-1,.78-2.19,1.63-3.03Z"/>
      <path class="cls-120" d="M133.04,391.99c3.56,.03,7.12,.06,10.68,.08,.5,.26,.96,.57,1.4,.92,.7,.54,1.18,1.27,1.72,1.96,2.67,2.63,5.93,3.42,9.58,3.42,57.04,0,114.09,0,171.13-.02,3.41,0,6.67-.39,8.95-3.38,.4-.78,.91-1.47,1.65-1.96,.95-.61,2.13-.47,3.12-.96,1.8,.59,3.31,.05,4.64-1.18,.14,.27,.29,.54,.43,.81-.94,2.46-2.3,4.71-3.35,7.13-1.76,4.02-5.22,5.88-9.45,6.4-1.65,.2-3.32,.12-4.99,.12-57.75,0-115.5,0-173.26,0-.67,0,.17,0-.5,0-9.94-.05-11.89-1.38-15.61-10.56-1.02-.74-2.23-.54-3.38-.63-.92-.03-1.84-.1-2.74-.34-.44-.14-.83-.38-1.17-.69-.18-.43-.17-.87,.02-1.3,.42-.28,.8-.22,1.12,.17Z"/>
      <path class="cls-32" d="M220.19,349.03c5.8-.06,11.6-.11,17.4-.16,5.32-.05,9.34,2.36,11.71,6.97,2.28,4.43,.9,8.39-2.78,11.53-1.58,1.35-1.1,2.43-.09,3.78,1.97,2.62,3.83,5.32,6.44,8.97h-11.88c-.58-.17-.93-.55-1.06-1.14-1.27-2.66-2.87-5.08-5.09-7.06-1.14-1.02-2.23-1.96-3.81-.83-1.03,1.86-.53,3.89-.47,5.82,.07,2.64-.75,4.3-3.59,3.96-2.81-.33-7.37,1.71-7.67-2.94-.59-9.2-.65-18.46,.08-27.68,.04-.52,.51-.83,.82-1.21Z"/>
      <path class="cls-13" d="M134.04,410.93c6.18,4.18,13.12,5.04,20.39,5.03,59.63-.06,119.26-.06,178.89,0,8.97,0,15.53-3.65,19.49-11.74,2.87-5.87,7.57-9.49,13.65-11.59,4.69-1.63,9.57-2.9,13.81-5.58,8.35-5.28,9.96-12.02,5.38-20.85-.67-1.3-2.91-2.1-1.72-4.19,.25-.23,.54-.33,.88-.3,2.54,2.39,4.93,4.94,5.98,8.36,2.62,8.52-1.53,16.93-10.25,20.5-5.49,2.25-11.08,4.3-16.69,6.24-4.01,1.39-6.91,3.64-8.32,7.82-3.62,10.76-12.14,13.35-22.34,13.34-62.75-.04-125.51-.02-188.26-.02-5.35,0-9.01-2.84-11.91-7,.33-.34,.67-.36,1,0Z"/>
      <path class="cls-61" d="M132.11,393.02l2.94,.05c2.76,2.89,3.57,7.23,7.12,9.54,.42,.37,.81,.75,1.22,1.13,2.37,2.15,5.22,2.79,8.3,2.79,58.86,.02,117.73,.06,176.59-.07,4.93-.01,10.04-.4,13.83-4.39,.29-.46,.6-.92,.89-1.38,.67-.94,1.63-1.71,1.99-2.83,2.91-9.03,10.35-12.03,18.59-13.79,2.99-.64,5.72-1.78,8.33-3.19,5.82-3.14,6.84-6.22,4.3-12.26-.51-1.22-1.37-2.36-.27-3.68,.79-.9,1.86-1.05,2.97-1.09,.39,.33,.67,.74,.87,1.21,5.75,11.68,3.09,17.8-9.54,21.57-3.83,1.14-7.71,2.12-11.41,3.64-5.11,2.1-7.84,6.42-10.02,11.2-3.79,7.25-9.61,10.03-17.91,10-59.43-.23-118.85-.27-178.28,0-11.59,.05-16.71-4.17-20.52-18.44Z"/>
      <path class="cls-26" d="M269,378.98c-2.97,2.35-6.4,.92-9.61,1.09-2.03,.11-1.2-1.3-.75-2.39,3.73-8.86,7.54-17.69,11.06-26.63,.95-2.41,2.58-2.4,4.33-2.11,2.39,.39,5.55-1.66,7.03,1.86,4.05,9.59,8.02,19.21,12.05,28.87-5.79,1.35-10.63,1.25-12.98-5.01-1.28,.35-2.62,.47-3.88,.25-3.58-.61-5.94,.74-7.24,4.07Z"/>
      <path class="cls-35" d="M132.11,393.02c1.52,2.75,3.33,5.39,4.51,8.28,2.43,5.95,6.68,8.66,13.05,8.66,61.51-.04,123.03-.05,184.54,.02,5.18,0,8.75-2.26,11.62-6.3,.93-1.31,1.37-3.11,3.14-3.74,.15,.17,.31,.33,.46,.5,.34,.93,.19,1.76-.46,2.51,0,.33,0,.66,0,1-2.88,6.3-8.36,8.28-14.66,8.44-7.65,.19-15.32,.05-22.98,.05-53.12,0-106.23,0-159.35,.01-3.18,0-6.32-.2-9.38-1.06-3.79-1.07-6.4-3.57-7.83-7.15-3.15-7.88-8.72-12.55-17.1-14.43-4.47-1.01-8.73-3-12.85-5.3-5.69-3.18-8.39-10.57-4.46-16.17,.48-.68,.7-1.51,.71-2.36,.02-.39,.05-.79,.07-1.18,1.09,.08,2.16,.22,2.96,1.1,.44,.52,1.25,.74,1.31,1.57-.03,.33-.07,.68-.23,.96-4.23,7.72-1.87,12.86,6.8,15.55,6.46,2,13.42,2.8,18.97,7.23,.56,.47,.61,1.27,1.12,1.77l.05,.06Z"/>
      <path class="cls-4" d="M340.2,312.08c-.66-.08-1.31-.15-1.97-.23,3.59-1.34,5.96-4.31,8.93-6.47,6.62-4.81,8.53-11.76,8.7-19.18,.29-12.76,1.57-25.49,1.82-38.21,.28-14.5,1.88-28.9,2.59-43.35,.36-7.37-.22-14.9,1.53-22.26,.88-3.73-.22-7.72-1.59-11.15-.99-2.47-1.13-4.75-1.23-7.2,2.34-1.27,3.38,.53,4.34,2.02,1.75,2.72,2.65,5.78,2.51,9.01-.41,8.94,.12,17.89-.51,26.82-.7,10.06-1.82,20.14-2.1,30.18-.4,14.2-1.81,28.33-2.39,42.52-.32,7.7-.16,15.61-2.49,23.16-1.04,3.37-2.42,6.56-5.23,9.2,1.15-.14,2.02-.29,2.88,.04,2.83,.42,5.41-1.56,8.27-.89-7.83,2.72-15.89,4.54-24.03,6Z"/>
      <path class="cls-45" d="M113.05,196.02c-.93-9.07,.01-18.08,.16-28.1,2.84,2.2,.97,4.61,2.94,6.58,0-2.97,0-5.36,0-7.76,.82,13.38,1.7,26.77,2.44,40.16,.91,16.54,1.71,33.08,2.55,49.62,1.01,7.13-.28,14.36,1.01,21.47,.29,1.61,.66,3.21,1.26,4.74,.38,5.7,.63,11.43,3.28,16.69,.98,2.32,2.35,4.36,4.09,6.2,1.08,1.14,2.58,2.35,1.26,4.28-2.69,.72-4.86-.73-7.13-1.75,.05-.23,.11-.46,.14-.69-5.6-9.42-6.59-19.8-7.23-30.5-.68-11.19-.99-22.42-2.4-33.61-.93-7.44-.39-15.2-1.22-22.7-.91-8.21,.37-16.47-1.16-24.61Z"/>
      <path class="cls-25" d="M179.2,349c9.8-.05,19.6-.02,29.4-.19,2.62-.05,3.47,.77,3.3,3.38-.15,2.25,.23,4.01-3.19,4.05-8,.09-8,.3-8,8.13,0,4.15-.19,8.32,.05,12.46,.28,4.81-3.17,3.13-5.43,3.29-2.35,.16-5.05,.85-4.82-3.37,.31-5.63-.05-11.3,.13-16.94,.09-2.77-.68-3.93-3.61-3.73-2.63,.18-5.29-.14-7.94-.24-.74-2.3-.97-4.58,.12-6.85Z"/>
      <path class="cls-53" d="M357.88,165.81c.47,19.42-1.16,38.73-2.83,58.05-.51,5.93-.32,11.89-.9,17.87-1.23,12.68-1.83,25.45-2.03,38.19-.07,4.34,0,8.5-.78,12.86-1.41,7.89-6.3,12.32-13.08,14.83-5.01,1.85-9.38,4.91-14.44,6.59-1.89,.63-1.53,1.51,.31,1.84-2.44,1.15-5.01,1.85-7.7,2.02-2.04,2.19-4.56,3.58-7.28,4.84-6.7,3.13-13.54,6.05-19.37,10.77-1.28,.29-2.54,.41-3.73-.33-1.58-2.76,.7-3.92,2.3-5.19,7.66-6.08,16.72-9.5,25.56-13.37,6.7-2.93,13.59-5.5,19.81-9.45,10.27-3.02,15.21-9.95,15.15-20.58,1.81-2.93,2.13-6.18,2.32-9.54,1.82-31.53,3.67-63.05,5.62-94.57,.31-4.95-.32-9.98,1.07-14.85Z"/>
      <path class="cls-121" d="M109.1,367.79c5.41,2.04,10.85,3.99,16.21,6.16,2.29,.93,3.61,1.16,3.76-1.99,.22-4.62,.75-9.23,1.15-13.85,2.73,.57,1.72,2.82,1.76,4.36,.12,5.55,.15,11.11,0,16.67-.41,3.77-2.74,5.06-6.24,4.8-4.36-.33-8.61-1.23-12.49-3.24-5.36-2.78-6.73-7.34-4.13-12.9Z"/>
      <path class="cls-109" d="M346.91,360.08c.34,3.96,.88,7.91,.94,11.87,.05,3.12,1.15,3.05,3.57,2.1,6.45-2.54,13-4.85,19.51-7.25,1.54,8.32-2.97,11.78-10.33,13.23-2.44,.48-4.96,.41-7.42,.25-3.68-.23-5.22,1.38-4.84,4.98-.34,2.09,.82,4.79-2.33,5.73,0,0-.12-.11-.12-.11-.04-7.32-.08-14.64-.11-21.96,.21-2.97-1.97-6.24,1.13-8.84Z"/>
      <path class="cls-7" d="M144.08,392.77c-.08-.25-.2-.49-.36-.7,6.31-.06,12.63-.16,18.95-.16,57.37-.01,114.74,0,172.1,0,2.16,0,4.32,.1,6.48,.15-.75,.25-1.51,.49-2.27,.74-1.97,1.59-4.31,1.56-6.65,1.56-60.54,0-121.08,0-181.63,0-2.33,0-4.69,.08-6.63-1.58Z"/>
      <path class="cls-10" d="M134.04,410.93h-1c-3.36-1.47-4.04-5.13-5.98-7.7-4.24-5.63-10.54-7.45-16.39-10.18-3.41-1.59-6.98-2.86-10.36-4.51-6.87-3.35-9.44-10.58-6.8-17.73,.96-2.59,2.74-4.97,2.57-7.94,.68,.26,1.35,.53,2.03,.79,.8,1.63-.21,2.61-1.04,3.93-5.31,8.43-2.91,14.08,5.18,18.88,4.54,2.7,9.45,4.65,14.62,6.07,9.36,2.58,13.81,10.05,17.18,18.39Z"/>
      <path class="cls-13" d="M382.84,311.67c-.53,2.23,.07,3.46,2.48,4.36,7.12,2.66,9.18,7.46,7.07,15.07-1.48,5.33-4.72,9.83-7.21,14.63-1.28,2.48-2.03,5.14-3.4,7.54-1.1-.7-1.71-1.73-2.01-2.97-.43-3.86,1.75-6.92,3.59-9.84,2.09-3.31,3.32-6.76,3.95-10.52,.89-5.37,.09-6.78-4.87-9.15-1.55-.74-3.66-1.23-2.49-3.8,.55-2,1.53-3.75,2.89-5.3Z"/>
      <path class="cls-119" d="M346.96,384.94c-.81-4.7,.99-6.56,5.88-6.1,3.06,.29,6.25,.57,9.34-.49,4.6-1.58,8.94-3.22,7.47-9.57-.12-.54,.83-1.32,1.29-1.99,.8-.85,1.86-.98,2.94-1.07,.33,.38,.49,.81,.5,1.31,3.08,7.94,1.12,12.09-6.97,14.59-5.36,1.65-11.01,2.14-16.29,4.16-1.44,.55-2.94,.29-4.16-.84Z"/>
      <path class="cls-77" d="M109.1,367.79c-.12,4.09-.95,8.55,3.46,11.06,4.91,2.79,10.33,3.87,15.99,3.81,1.89-.02,1.18-2.21,2.44-2.7,1.73,2.4,1.05,5.01,.64,7.59-1.42,1.83-3.21,1.34-4.94,.69-3.56-1.32-7.29-2.04-10.91-3.18-10.97-3.43-13.08-6.8-10.78-18.05-.31-.38-.62-.76-.93-1.14,1.83,.24,3.55,.76,5.02,1.92Z"/>
      <path class="cls-16" d="M379.95,316.98c.33,2.32,2.15,2.81,3.97,2.93,3.63,.23,4.78,2.72,4.95,5.63,.27,4.81-.33,9.73-3.2,13.65-2.55,3.48-3.96,7.4-5.9,11.12-1.11-.7-1.74-1.73-2-3-.74-2.36,.78-4.11,1.67-6,1.56-3.27,3.3-6.46,4.19-10.01,.84-3.32-.13-5.83-3.35-7.31-1.38-.63-3.59-.66-2.43-3.22-.09-1.69,1.06-2.7,2.08-3.78Z"/>
      <path class="cls-40" d="M123.02,282.98c-.35-1.34-.69-2.68-1.04-4.01-.53-1.8-.86-3.6,.24-5.33,.73,4.96,.99,10.12,5.87,13.24,.63,1.02,.75,2.21,.85,3.33,.73,8.26,5.99,12.95,12.91,16.13,5.54,2.54,11.02,5.2,16.59,7.68,1.76,.78,3.86,1.36,3.75,3.97-.4,.36-.84,.43-1.33,.2-4.64-1.39-9.29-2.78-13.93-4.17-3.34-3.06-7.99-3.64-11.65-6.1-.41-.22-.79-.49-1.16-.78-6.91-5.1-9.83-12.18-10.15-20.54-.29-1.21-1.57-2.17-.95-3.61Z"/>
      <path class="cls-59" d="M377.86,320.76c-.12,2.08,1.68,1.59,2.75,1.98,4.05,1.47,5.5,4.23,4.41,8.39-1.52,5.79-4.76,10.81-7.25,16.16-1.14-.77-1.73-1.93-2.2-3.16,.5-2.98,2.35-5.39,3.42-8.13,1.43-3.65,1.97-7.03-2.36-9.23-.72-.36-1.3-1.02-.79-1.99,.28-1.54,1.02-2.85,2.02-4.02Z"/>
      <path class="cls-12" d="M100.99,345.75c-4.78-7.54-7.03-15.36-4.11-24.37,.84-2.59,3.39-2.48,4.19-4.47,.8,.81,1.05,1.81,1.03,2.91,.38,.58,.63,1.34,.23,1.84-4.08,5.13-2.62,10.33-.55,15.71,.67,1.72,1.42,3.6,1.26,5.59-.31,1.21-.95,2.17-2.06,2.79Z"/>
      <path class="cls-33" d="M289.99,332.93c3.53-5.38,9.81-6.44,14.9-9.34,3.7-2.11,7.69-3.7,11.55-5.53-.08,.3-.11,.61-.11,.92,.51,.97,.64,1.98,.23,3.02-.79,1.57-2.12,2.58-3.72,3.06-6.55,1.94-12.21,5.73-18.27,8.7-1.6,.11-3.26,.57-4.57-.85Z"/>
      <path class="cls-55" d="M373.95,366.95c-.02-.41-.05-.82-.07-1.23,.69-.26,1.38-.53,2.07-.79,4.71,11.19,3.09,15.06-8.43,19.55-2.11,.82-4.54,.81-6.71,1.5-6.2,1.98-12.26,4.18-14.19,11.54-.36,1.38-1.08,2.81-2.66,3.41-.52-5.18,4.06-12.67,9.11-15.03,3.91-1.83,8.01-3.05,12.23-3.89,1.8-.35,3.53-.88,5.17-1.62,5.91-2.64,7.03-7.1,3.47-13.45Z"/>
      <path class="cls-64" d="M375.84,324.78c7.15,4.4,7.47,5.39,3.54,13.22-1.07,2.14-1.58,4.69-3.81,6.14-.53-.75-1.06-1.51-1.59-2.26-.68-.69-.65-1.59-.28-2.28,1.74-3.29,2.05-6.49-.08-9.75-.33-.51-.18-1.28,.36-1.8,.62-1.09,1.24-2.18,1.86-3.26Z"/>
      <path class="cls-47" d="M315.8,322c.17-1.01,.35-2.01,.52-3.02,1.52,2,2.38,12.55,1.2,14.5-.68,1.13-1.74,1.46-2.95,1.45-10.77-.02-21.53-.05-32.29-.11-.43,0-.85-.45-1.28-.69,.22-.21,.45-.42,.67-.63,1.19-.76,2.42-.69,3.75-.38,5.05,1.19,10.01-.31,15.01-.57,3.47,.05,6.94,.01,10.41-.07,1.61-.04,3.5,.31,3.63-2.2,0-2.84-.1-5.69,1.34-8.29Z"/>
      <path class="cls-5" d="M103.05,342.96c-5.22-6.6-5.67-14.61-1.25-21.7,.24-.39,.21-.96,.31-1.45,1.78,1.65,.35,4.44,2.16,6.09-2.18,3.03-1.34,6.3-.83,9.57,.3,1.93,1.16,3.8,.77,5.82-.39,.55-.78,1.11-1.16,1.66Z"/>
      <path class="cls-85" d="M373.98,328.04c4.05,4.61,2.58,9.22,0,13.83q-5.19-6,0-13.83Z"/>
      <path class="cls-83" d="M104.22,341.3c-2.4-3.16-2.1-7.1-2.97-10.69-.52-2.14,.29-4.25,3.02-4.71,.6,1.67,1.2,3.34,1.8,5.01,.72,2.57,1.46,5.14-.04,7.7-.6,.9-1.21,1.79-1.81,2.69Z"/>
      <path class="cls-76" d="M220.19,349.03c.02,9.09,.3,18.19-.04,27.26-.18,4.84,2.8,3.67,5.43,3.85,2.9,.2,5.25,.15,4.76-3.95-.19-1.63-.9-3.61,.68-5.12,0,3.3-.02,6.6-.03,9.9-3.63,.73-7.26,.67-10.89,.03-.37-.37-.75-.74-1.12-1.11-.74-10.31-.73-20.62,0-30.93,.41,.02,.81,.04,1.22,.06Z"/>
      <path class="cls-35" d="M378.95,364.95c-.01-.37-.03-.74-.04-1.11,.83-.8,1.85-1.07,2.97-1.05,.73,1.81,1.4,3.65,2.2,5.44,3.95,8.86,1.35,14.56-8.13,17.71-.46-1.16,.24-1.88,.98-2.56,7.57-6.99,7.94-10.4,2.02-18.43Z"/>
      <path class="cls-82" d="M131,387.94c0-2.66,0-5.33,0-7.99-.32-7.28,.98-14.62-.78-21.85-.03-2.29-.82-4.8,1.85-6.29,.73,13.39,.79,26.79-.03,40.18,.08,.32,.08,.64,.02,.96-.35-.34-.7-.68-1.05-1.02-1.02-1.33-1.03-2.66,0-4Z"/>
      <path class="cls-7" d="M132.04,391.99c0-13.39,.02-26.78,.03-40.18,.12-.91-.45-1.94,.96-3.17,0,14.75,0,29.05,0,43.34-.33,0-.66,0-.99,0Z"/>
      <path class="cls-113" d="M192.78,333.18c13.4,.01,26.81,.03,40.21,.04,0,0,.28,.39,.28,.39,0,0-.15,.46-.15,.46-13.4,.03-26.81,.05-40.21,.08-.41,.22-.78,.17-1.12-.13-.12-.42-.07-.82,.15-1.2,.43-.23,.73-.13,.86,.36Z"/>
      <path class="cls-111" d="M240.46,333.05c13.51,.06,27.02,.12,40.53,.18,.1,.19,.2,.38,.3,.58,0,0-.3,.32-.3,.32-13.37,0-26.74,0-40.11,0-.31,.22-.64,.25-.98,.1-.22-.3-.3-.63-.24-1,.2-.38,.47-.42,.8-.17Z"/>
      <path class="cls-80" d="M135.04,306.97c4.07,1.7,8.17,3.34,12.19,5.14,1.54,.69,1.72,1.57-.3,1.9-3.9-.37-7.57-1.58-11.21-2.94-.55-.74,2.3,.01,.55-1.28-.93-.69-1.76-1.48-1.23-2.83Z"/>
      <path class="cls-39" d="M135.04,306.97c.65,1.57,2.13,2.42,3.7,3.79-1.38,.14-2.2,.23-3.02,.31-1.09-.82-2.31-1.24-3.68-1.2-.81-4.02-5.95-5.43-6-9.91,.22-.07,.44-.14,.66-.21,3.3,1.8,5.11,5.32,8.34,7.21h0Z"/>
      <path class="cls-72" d="M210.68,347.8h-30.32c0-.16,0-.32,0-.49h30.52c-.06,.16-.13,.32-.19,.49Z"/>
      <path class="cls-47" d="M192,333.98c.3,.03,.6,.09,.9,.17-7.85,1.8-15.81,.5-23.71,.72-2.66,.07-5.64,1.21-8.08-1.01,.46-.47,1.01-.79,1.64-.98,8.38-.66,16.77-.2,25.15-.27,1.52-.01,2.95,.28,4.1,1.38Z"/>
      <path class="cls-7" d="M346.91,360.08c-2.23,2.71-.21,5.96-1.13,8.84-1.8-6.4-.4-12.83-.16-19.29,2.07,3.3,1.03,6.96,1.29,10.45Z"/>
      <path class="cls-88" d="M218.97,348.97c0,10.31,0,20.62,0,30.93-1.76-1.81-1.01-4.08-.91-6.1,.42-8.28-1.24-16.63,.9-24.83Z"/>
      <path class="cls-75" d="M269,378.98c1.55-5.61,2.22-5.87,11.12-4.33-.67,.42-1.31,1.15-2,1.2-3.43,.25-7.43-.82-8.44,4.22-.14-.05-.36-.06-.4-.15-.13-.3-.19-.62-.27-.94Z"/>
      <path class="cls-72" d="M221.05,347.22h18.68c0,.13,0,.26,0,.39h-18.68c0-.13,0-.26,0-.39Z"/>
      <path class="cls-20" d="M239.92,378.97c.35,.38,.71,.76,1.06,1.14,3.44,2.03,7.42-.07,12.39,1.81-4.73,0-8.01,.09-11.29-.04-1.71-.06-3.47-.45-2.16-2.92Z"/>
      <path class="cls-43" d="M162.14,333.78c-.34,.03-.69,.06-1.03,.08,0,0,0,.09,0,.09-1.11-4.94-.55-9.91-.28-14.88,.01-.29,.02-.59,.03-.88,.37,0,.74,0,1.12,0,.75,.55,1.06,1.34,1.24,2.21,.2,3.98,.43,7.96-.16,11.94-.21,.54-.52,1.02-.92,1.44Z"/>
      <path class="cls-47" d="M160.83,319.07c.09,4.96,.19,9.92,.28,14.88-1.9-4.93-1.46-9.9-.28-14.88Z"/>
      <path class="cls-72" d="M283.02,381.23h8.7c0,.13,.01,.27,.02,.4h-8.71c0-.13,0-.27,0-.4Z"/>
      <path class="cls-72" d="M220.1,381.02c3.63-.01,7.26-.02,10.89-.03-3.63,1.55-7.26,1.51-10.89,.03Z"/>
      <path class="cls-72" d="M199.76,381.7h-8.7c0-.16,0-.32,0-.48h8.75c-.02,.16-.04,.32-.05,.48Z"/>
      <path class="cls-36" d="M106.03,338.61c.01-2.57,.03-5.13,.04-7.7,1.65,2.57,3.33,5.15-.04,7.7Z"/>
      <path class="cls-70" d="M271.19,347.2h8.73c0,.16,0,.33,0,.49h-8.68c-.02-.16-.03-.33-.05-.49Z"/>
      <path class="cls-47" d="M240.08,333.95c.28,.03,.55,.09,.81,.17-2.6,1.31-5.2,1.39-7.78-.05,0,0,.16-.24,.16-.24,2.3-1.71,4.56-1.45,6.81,.12Z"/>
      <path class="cls-72" d="M179.2,349c-.04,2.28-.08,4.56-.12,6.85-1.87-2.32-1.61-4.59,.12-6.85Z"/>
      <path class="cls-45" d="M117.73,306.09c1.44-.04,2.88-.08,4.32-.12,1.42,0,3.01-.28,3.05,1.92,0,0-.18,.24-.18,.24-2.53-.23-4.94-.82-7.19-2.04Z"/>
      <path class="cls-87" d="M213.56,349.65c.62,1.98,.73,3.65-.1,5.61-.62-1.98-.73-3.65,.1-5.61Z"/>
      <path class="cls-108" d="M281.29,333.81c0-.24-.1-.43-.3-.58-2.71-10.03-1.43-13.85,6.84-20.15,1.32-1,2.67-2.06,4.16-2.72,16.98-7.47,33.98-14.86,50.98-22.27,3.68,.5,4.18,2.7,3.05,5.73-1.46,3.91-4.22,6.65-7.76,8.73-2.14,1.26-4.51,2.1-6.47,3.68-.42,.26-.86,.46-1.32,.63-7.9,2.6-15.84,5.13-22.89,9.74-3.61,2.43-7.51,4.31-11.6,5.73-3.88,1.35-6.96,3.87-10.15,6.27-2,1.51-1.86,2.94,.14,4.31,1.33,0,2.67,0,4,0,1.67,0,3.34,0,5.01,0,1.73-1,3.52-1.42,5.45-.59,.56,.3,.72,.75,.49,1.35-6.55,.04-13.1,.08-19.65,.13Z"/>
      <path class="cls-68" d="M299.03,280.13c-1.52,1.06-3.06,2.07-5.03,1.93-7.69-.21-15-1.44-21.32-6.47-3.22-2.57-5.03-1.53-5.26,2.77-.26,4.95,.2,9.97-1.62,14.74-3.55,3.09-4.45,.37-4.45-2.38,0-5.64-.24-11.28-.17-16.89,.06-4.81-.55-9.3-2.55-13.54-3.23-6.85-3.74-13.35-.32-20.54,3.58-7.53,1.08-14.24-5.39-19.42-.51-1.65,.45-2.43,1.77-3,5.72,1.05,9.85,6.56,10.52,13.75,.45,4.78-1.17,9.13-2.57,13.52-.77,2.41-1.43,4.76-.44,7.24,.55,1.38,.95,2.99,2.61,3.37,1.83,.41,2.49-1.26,3.41-2.37,1.63-1.95,2.53-4.86,5.91-4.52,2.67,1.28,2.93,3.25,1.76,5.76-5.38,11.53-.52,20.35,12.22,22.27,2.47,.37,4.96,.3,7.44,.35,1.81,.04,3.67-.19,5.3,.93,1.18,2.12-1.51,1.44-1.81,2.49Z"/>
      <path class="cls-62" d="M325.97,143.04c8.18,4.54,12.99,9.99,11.55,20.85-2.51,19.03-3.16,38.3-4.62,57.47-.15,1.96-.55,3.9-.84,5.85-2.1-1.96-1.22-4.58-1.55-6.93,.27-13.91,1.98-27.72,3.03-41.57,.08-1.36,0-2.72,.14-4.08,.04-.77,.17-1.52,.37-2.26,.45-1.35,.7-2.75,.68-4.18-.01-.69,0-1.38,0-2.07,.19-1.97-1.19-2.86-2.51-3.89-5.18-4.02-9.86-8.63-14.94-12.77-1.9-2.98-5.08-4.67-7.32-7.31-1.2-1.42-2.52-3.03-1.17-4.83,1.39-1.85,3.37-1.02,4.91-.06,3.35,2.1,7.1,3.5,10.3,5.86,.71,.52,1.35,1.01,1.96-.08Z"/>
      <path class="cls-51" d="M264.99,292.98c1.21-5.36,.87-10.8,1.05-16.23,.13-4.1,2.83-5.88,5.59-3.49,6.18,5.35,13.55,6.91,21.23,7.92,.41,.05,.76,.58,1.14,.89-8.33,4.26-16.84,8.11-25.76,11.01-1.1,.45-2.19,.69-3.25-.1Z"/>
      <path class="cls-58" d="M294.95,134.15c-.36-.4-.72-.79-1.09-1.19-.69-1.16-1.84-.85-2.88-.91-5.49-2.07-8.93-6.61-12.69-10.7-1.97-2.14-3.21-4.81-1.48-7.68,1.85-3.05,4.82-3.07,7.9-2.34,1.1,.26,2.13,.97,3.34,.51,5.75,3.82,10.69,8.62,15.99,13,2.13,1.58,3.5,4.11,6.18,5.01l-.09-.07c.94,1.37,2.43,2.14,3.58,3.28l3.44,2.55c-.9,3.44-3.12,1.3-4.17,.59-6.31-4.31-13.23-7.64-19.34-12.24-1.42-1.07-2.67-2.51-5.7-2.53,4.11,4.4,7.3,8.67,11.16,12.39,.84,.82,1.91,1.89,.93,2.96-1.04,1.14-2.05-.21-3.01-.73-1.12-.15-1.64-.97-2.08-1.88Z"/>
      <path class="cls-37" d="M297.02,136.03c.79,.09,1.57,.18,3.3,.37-5.28-3.93-7.93-9.18-12.32-12.89-.93-.79-2.42-1.71-1.4-3.27,1.22-1.86,2.77-.61,3.91,.12,6.96,4.43,13.83,9.01,20.78,13.46,1.75,1.12,3.26,3.34,5.86,1.79,1.78,.59,2.7,2.13,3.82,3.45,1.36,.92,2.56,2.05,3.9,3,.37,.33,.73,.67,1.1,1,.46,.82,.93,1.65,1.95,3.46-5.18-2.9-9.43-5.31-13.71-7.65-1.49-.81-3.29-2.91-4.73-.98-1.41,1.88,1.16,3.04,2.22,4.38,1.92,2.42,5.42,3.37,6.27,6.78-1.37,1.14-2.74,.38-4.12,.03-4.19-2.1-8.23-4.34-9.24-9.53-.01-.6-.02-1.21-.32-1.76-.8-.49-1.54-.37-2.26,.14-.67,.56-1.27,1.2-2.07,1.57-.44,.12-.88,.12-1.33,.03-.64-.34-1.14-.75-.68-1.57-.31-.64-.61-1.28-.92-1.93Z"/>
      <path class="cls-18" d="M299.03,280.13c.65-.72,1.3-1.43,1.94-2.15,.96-1.89,2.92-1.91,3.95-2.25-7.38,.87-15.41,1.65-23.16-1.67-5.71-2.44-9.08-8.72-7.81-14.66,.57-2.67,1.52-5.19,4.99-4.87,.65,.43,.09-1.1,.07-.44,0,.24-.1,.2-.36,.13-1.42-.43-2.44-1.01-1.27-2.66,8.11-.3,16.23,.01,24.34,.03,3.77,0,7.24-.52,10.32-2.77,1.03-.2,1.4,.48,1.68,1.27,.1,.49,.12,.99,.08,1.49-.35,1.62,.81,2.28,1.87,3.13,6.16,4.96,5.83,11.98-.73,16.8-.67-.04-.03,.7-.01,.04,0-.07,.17-.04,.49-.07,.69-.07,1.31,0,1.76,.59-5.85,3.14-11.83,5.98-18.16,8.05Z"/>
      <path class="cls-10" d="M312.97,251.99c0-.34,.02-.67,.02-1.01,1.93-1.67,4.05-1.12,6.1-.41,3.48,1.21,5.73-.25,6.27-3.52,1.2-7.33,3.6-14.41,4.26-21.84,.17-1.93-.7-4.48,2.31-5.2,.04,2.4,.08,4.8,.12,7.19-.75,10.27-1.51,20.54-2.26,30.81-.91,1.97,.24,4.19-.78,6.14,.07,.63-.26,.94-.83,1.07-.44-.43-.6-1.03-.98-1.5,.28,.53,.56,1.06,.97,1.51-1.88,3.55-5.6,4.34-8.81,5.89-1.17,.17-2.96,1.01-2.08-1.44,.36-1.02,1.21-1.91,1.73-2.94,2.94-5.81,2.45-7.64-2.95-11.32-1.28-.87-3.18-1.29-3.11-3.43Z"/>
      <path class="cls-8" d="M264.99,292.98c1.08,.03,2.17,.07,3.25,.1-2.17,1.44-4.56,2.35-7.07,2.97-2.6,1.02-2.89-.61-2.67-2.48,.73-6.24,.45-12.55,.29-18.75-.18-6.81-2.21-13.6-5.56-19.77-.76-2.4-.69-4.84-.25-7.28,.78-2.39,2.04-4.62,2.54-7.11,.22-1.68,.59-3.31,1.38-4.83,1.45-2.76,.75-5.33-.73-7.81-.51-.72-.93-1.49-1.3-2.29-.67-1.86-2.62-2.89-3.19-4.82,.13-.73,.44-1.22,1.3-.91,6.57,2.98,9.57,9.72,7.68,17.41-.28,1.12-.51,2.34-1.12,3.29-3.84,5.98-3.23,12.05-.14,17.96,4.59,8.8,2.97,18.27,3.18,27.51,.04,1.64,.36,3.48-.16,5.31-.42,1.5,.39,3.19,2.55,1.49Z"/>
      <path class="cls-48" d="M241.97,311.9c-1.57,6.97-2.76,13.98-1.51,21.15,0,0-.24-.13-.24-.13l-.27,.06c-5.96,.9-5.8,.89-5.98-4.79-.19-6.16,.09-12.45-3.19-18.08l.08,.05c-.98-1.94-1.66-3.85,1.45-4.33,3.42-.53,6.89-.27,10.34-.41,1.71-.07,2.04,1.33,1.61,2.83l.06-.08c-1.7,.67-1.46,2.54-2.34,3.73Z"/>
      <path class="cls-17" d="M288.05,111.83c-.1,.66,.95,1.8-.44,1.85-.89,.03-1.78-.83-2.72-1.12-2.65-.83-5.36-1.22-7.17,1.47-1.74,2.59-.21,4.88,1.53,6.67,3.79,3.89,7.81,7.57,11.73,11.34-7.1-.14-19.19-11.66-18.78-18.4,.31-5.08,4.71-6.2,8.74-7.34,2.89,1.18,4.91,3.47,7.11,5.53Z"/>
      <path class="cls-58" d="M259.11,297.02c-2.05,1.74-4.6,2.33-7.08,3.08-.83-2.29,1.18-3.89,1.44-5.9,.2-1.6,2.01-3.22-.01-4.82-.62-.22-1.24-.46-1.82-.77-.57-.4-.95-.9-.83-1.64,.59-1.04,2.37-.67,2.54-2.19-.18-.83-.37-1.64-.33-2.5,.68-2.93-.39-5.8-.25-8.71,.53-4.5-1.26-9.16,.96-13.53,.5-.35,1.02-.36,1.54-.05,2.75,5.54,3.96,11.41,3.71,17.58-.24,5.9,.68,11.85-.68,17.71-.15,.64,.47,1.2,.81,1.75Z"/>
      <path class="cls-60" d="M330.96,305.97c1.82-3.07,5.44-3.45,8.1-5.29,2.42-1.68,4.07-3.77,5.48-6.14,1.49-2.51,1.57-4.93-1.56-6.45,1.96-1.11,3.92-2.22,5.88-3.33,4.18,8.42-5.78,21.06-14.9,21.21-1,.7-2,.88-3,0Z"/>
      <path class="cls-37" d="M254,287.98c2.46,.38,2.16,2.04,1.61,3.67-.98,2.9-1.69,5.93-3.57,8.45-2.31,2.37-4.63,4.74-6.94,7.1-.97-.44,.22-2.79-2.15-2.14-9.98,2.71-17.28-.89-22.22-9.76-.89-2.87-2.65-5.95,1.68-7.68,1.84,.81,1.71,2.64,2.17,4.18,2.37,7.91,5.91,10.11,15.82,9.86,6.74-.17,10.65-3.5,12.29-10.55,.27-1.14,.49-2.25,1.33-3.13Z"/>
      <path class="cls-5" d="M259.11,297.02c-1.7-.21-2.03-1.09-1.79-2.77,1.12-7.91,.74-15.81,.18-23.76-.27-3.75-2.76-6.76-2.5-10.49-1.45-1.46-2.66-2.96-.94-5.01,3.24,3.01,3.73,7.32,4.67,11.17,2.27,9.26,1.78,18.72,.67,28.13-.18,1.52,.82,1.54,1.77,1.76-.69,.33-1.37,.65-2.06,.98Z"/>
      <path class="cls-59" d="M222.01,294.98c4.75,8.35,11.72,11.48,21.14,9.15,3.19-.79,1.72,1.77,1.93,3.08-.28,.35-.55,.7-.83,1.05-.33-.88-.52-2.19-1.78-1.82-3.04,.91-6.13,.66-9.16,.46-2.98-.2-2.58,1.48-2.45,3.27-2.34-2.98-4.95-5.69-7.9-8.07-.58-2.33-3.3-4.38-.95-7.11Z"/>
      <path class="cls-45" d="M312.97,251.99c2.33,1.83,4.63,3.68,6.98,5.47,3.02,2.31,3.48,4.66,1.23,8.06-.95,1.43-3.45,3.07-1.81,5.6-.49,.88-1.34,.92-2.19,.95-.5-.61-2.73,1-1.82-1.34,.47-1.21,1.34-2.26,1.93-3.44,3.09-6.13,2.36-8.61-3.33-12.34-.89-.59-4.25-.81-.99-2.96Z"/>
      <path class="cls-37" d="M310.22,129.84c-3.33-.1-4.72-2.6-6.18-5.01,2.37,1.29,4.43,2.96,6.18,5.01Z"/>
      <path class="cls-62" d="M324.87,142.04c-1.98-.12-3.04-1.43-3.9-3,1.86,.27,3.14,1.29,3.9,3Z"/>
      <path class="cls-37" d="M313.71,133.05c-1.92-.3-3.11-1.4-3.58-3.28,1.46,.8,2.9,1.63,3.58,3.28Z"/>
      <path class="cls-45" d="M329.03,264.16c.18-2.06-.76-4.26,.78-6.14,.04,2.09,.46,4.22-.78,6.14Z"/>
      <path class="cls-10" d="M275.73,102.06c-1.93-.26-3.05-1.45-3.68-3.21,1.57,.68,3.01,1.5,3.68,3.21Z"/>
      <path class="cls-59" d="M241.97,311.9c-.01-1.74,.11-3.4,2.34-3.73-.78,1.24-1.56,2.49-2.34,3.73Z"/>
      <path class="cls-19" d="M181.05,282.82c-2.17-.55-4.25-1.3-6.09-2.62-1.05-1.28-3.13-.93-4.19-2.94,3.67-3.18,7.77,.07,11.51-.65,8.41,.58,16.26-.33,22.19-7.4,5.34-6.36,4.95-10.84-1.82-15.83-1.98-1.46-4.5-2.39-4.62-5.42,.15-1.83,.61-3.48,2.54-4.24,2.86,.82,5.86,1.16,8.6,2.45,1.06,.5,2.25,1,3.28,.1,1.21-1.04,.83-2.42,.38-3.7-.66-1.88-1.39-3.74-1.97-5.65-2.13-6.99,1.48-15.9,7.95-19.66,1.29-.2,2.4,.21,3.42,.96,3.05,2.35,2.58,4.78,.47,7.59-2.29,3.03-4.48,6.27-1.42,10.14,.11,.48,.08,.95-.07,1.41-.42,.88-1.06,1.61-1.63,2.39-.39,.64-.79,1.27-1.04,1.99-.78,5.71,.75,11.54-.96,17.18-3.54,2.84-3.9,6.34-3.02,10.65,1.52,7.47,.98,15.16,1.62,22.74,.16,1.97,.11,4.74-3.45,3.76-1.75-.34-3.39-.92-4.78-2.08,4.09-4.39,2.28-9.4,1.03-14.05-.9-3.34-3.82-2.28-6.22-1.35-6.98,2.71-14.25,3.99-21.71,4.22Z"/>
      <path class="cls-108" d="M135.06,289.93c15.56,6.79,31.2,13.4,46.61,20.5,4.69,2.16,9.26,5.16,11.23,10.57-.38,4.96-.88,5.36-5.23,3.49-9.88-4.25-19.19-9.7-29.16-13.75-6.27-2.55-12.74-4.65-18.43-8.5-2.51-1.7-4.83-3.55-6.14-6.33-1.04-2.19-1.7-4.44,1.13-5.97Z"/>
      <path class="cls-33" d="M189.02,132.04c-.74,.03-1.47,.09-1.85,.88-1.65,0-3.3,0-5.62,0,4.01-2.29,6.48-5.47,9.31-8.26,1.08-1.06,3.14-2.27,1.45-4.03-1.37-1.44-3.28-.34-4.53,.62-5.28,4.04-11.28,6.89-16.81,10.5-9.97,6.5-19.85,13.14-29.72,19.79-1.57,1.06-3.67,1.92-3.2,4.5,.79,1.13,.93,2.21-.23,3.19-2.36-1.89-1.01-4.29-.88-6.52,1.5-3.9,5.3-5.48,8.15-8,2.8-2.48,5.86-4.68,8.8-7,1.79,.29,2.57-1.27,3.75-2.08,10.54-7.14,21.05-14.32,31.72-21.27,2.23-1.45,4.48-2.89,7.18-3.28,2.42-.35,4.65-.04,6.18,2.19,1.4,2.04,1.1,4.1-.04,6.1-3.23,5.64-8.09,9.55-13.65,12.69Z"/>
      <path class="cls-48" d="M183.02,277.98c-3.72,.73-7.24-1.61-11.28-.79,1.2,1.12,2.21,2.06,3.22,3-8.9-3.18-17.4-7.28-25.89-11.41,1.5-8.04-.92-15.75-1.89-23.59-1.2-9.65-2.68-19.28-2.51-29.05,.03-1.82-.18-3.66,.59-5.39,3.17-2.27,2.8,1,3.02,2.23,.9,5.03,.82,10.17,1.4,15.26,.74,6.57,.99,13.17,2.54,19.65,1.96,8.22,3.23,8.78,9.87,3.72,1.07-.4,2-.07,2.9,.5,1.73,1.27,3.4,2.24,.25,4.15-5.84,3.53-5.64,10.55,.32,14.19,3.26,1.99,6.87,3.22,10.79,3.16,7.07-.1,14.23,.8,21.04-2.07,.92-.39,1.95-.34,2.8,.4-.55,3.58-3.61,3.76-6.19,4.45-3.58,.96-7.35,.76-10.97,1.54Z"/>
      <path class="cls-17" d="M146.04,210.01c-.42,16.06,1.91,31.83,4.59,47.6,.62,3.66,2.07,7.9-1.56,11.18-1.38-.46-3.13-.44-3.3-2.5,1.42-3.05,.64-6.41,.23-9.3-2.1-14.61-2.2-29.37-3.94-44-1.17-9.85-1.54-19.8-2.3-29.7-.67-8.77,4.08-15.36,10.12-20.72,6.68-5.93,13.61-11.63,20.82-16.94,1.43-1.05,2.78-2.49,4.87-2,2.07,3.92-.86,5.74-3.37,7.47-7.28,5.02-14.26,10.35-20.56,16.61-4.4,4.38-6.23,9.29-6.48,15.56-.34,8.54,1.56,16.86,1.42,25.32,0,.55-.18,1.02-.54,1.43Z"/>
      <path class="cls-17" d="M189.02,132.04c1.88-3.53,5.97-4.7,8.31-7.77,.9-1.18,2.31-2.03,3.04-3.29,1.36-2.33,3.8-4.78,1.16-7.59-2.37-2.53-5.36-1.68-7.77-.15-5.42,3.45-11.05,6.51-16.17,10.51-6.88,5.39-14.96,9.12-21.75,14.71-.86,.7-1.51,0-1.96-.78,1.96-2.4,4.4-4.19,7.09-5.68,1.46-.89,2.78-1.95,3.99-3.16,8.35-7.41,16.98-14.47,25.9-21.17,1.99,2.81,4.3,.8,6.22,.12,3.34-1.2,6.36-1.02,8.62,1.62,2.4,2.81,1.89,6.33,.36,9.32-2.76,5.4-8.03,8.58-12.23,12.7-1.24,1.21-3.18,.48-4.81,.61Z"/>
      <path class="cls-35" d="M176.02,144.03c-5.3,1.56-8.78,5.92-12.72,9.2-6.29,5.24-13.91,9.11-18.44,16.43-3.21,5.19-4.22,10.74-3.76,16.66,.97,12.49,1.91,24.98,3.01,37.45,.91,10.36,1.86,20.71,3.13,31.03,.38,3.07-.64,6.16,.62,9.22,.52,1.27-.93,1.92-2.1,2.27,0,0,0,0,0,0-1.07-2.3-1-4.77-1.28-7.24-1.67-14.63-2.23-29.34-3.67-43.99-.62-6.36-1.4-12.8-1.29-19.25,.02-1.59,.6-3.32-.57-4.8l-.16-.23,.18-.21c-.85-3.52-.22-7.09-.4-10.63,.2-3.14,1.59-5.95,2.48-8.91,8.92-10.65,19.34-19.66,30.4-27.98,1.28-.96,2.79-2.05,1.6-4.08,.64-.55,1.27-.47,1.89,.04,1.02,0,2.04,.02,3.07,.03,.76,.81,1.14,1.76,1.06,2.88-.14,1.03-.45,1.95-1.54,2.35-.68,1.11-.62-2.61-1.49-.23Z"/>
      <path class="cls-86" d="M181.05,282.82c4.73-2.08,9.86-2.32,14.83-3.29,2.78-.54,5.36-1.59,7.89-2.85,2.01-1,4.14-1.34,5.86,.72,1.87,2.23,2.67,12.84,1.3,15.32-.73,1.32-1.86,1.15-2.97,1.28-9.31-2.9-18.08-7.12-26.91-11.18Z"/>
      <path class="cls-57" d="M135.06,289.93c-2.6,4.56,.55,7.5,3.5,9.62,5.34,3.83,11.21,6.69,17.66,8.66,6.16,1.89,11.84,5.36,17.71,8.19,5.35,2.58,10.58,5.4,16.01,7.79,3.21,1.41,1.21-2.8,2.95-3.2,1.48,3.03,1.56,6.11,.25,9.21-4.41,.47-7.44-2.62-10.78-4.53-7.93-4.54-16.56-7.52-24.66-11.67-6.03-3.08-12.33-5.65-18.45-8.57-6.17-2.94-9.25-8.23-10.67-14.64-.29-1.29-1.04-3.21,1.68-2.92,1.81,.19,3.39,.89,4.79,2.05Z"/>
      <path class="cls-64" d="M138.04,159.03c0-1,0-2,0-3,6.93-2.91,12.32-8.31,18.99-11.65,2.04-1.02,4.78-3.27,6.11-1.64,1.54,1.88-1.29,3.93-2.86,5.52-6.62,6.72-13.31,13.37-19.84,20.16-.77,.81-3.47,.27-2.22,2.73,.29,1.42,.86,2.87-.33,4.18-.78-3.4-1.03-6.84-.83-10.31,1.29-1.84-.33-4.16,.98-6Z"/>
      <path class="cls-64" d="M130.27,287.88c-3.04,3.97,1.01,6.65,2.05,9.7,1.96,5.75,7.76,7.49,12.64,9.72,10.7,4.89,21.71,9.1,32.4,14,5.47,2.51,10.54,5.91,15.79,8.91-.12,.99-.25,1.98-.37,2.97,0,0-.35-.02-.35-.02l-.35,.07c-.69,.27-1.38,.24-2.08,.05-6.91-4.57-14.51-7.84-21.85-11.61-1.47-.75-2.95-1.52-4.69-1.35-.46,.06-.87-.07-1.24-.35-.08-.6-.16-1.19-.24-1.79-3.38-4.21-8.77-4.77-13.15-7.18-6.43-3.53-14.06-5.32-18.23-12.07-2.22-3.6-3.57-7.64-2.51-12.05,.73,.33,1.45,.67,2.18,1Z"/>
      <path class="cls-10" d="M212.74,296.08c3.06-.45,2.49-2.92,2.19-4.67-1.5-8.77-.06-17.8-2.64-26.51-.96-3.23,1.64-5.08,4.65-5.92,2.19,2.18,1.27,4.97,1.44,7.52,.22,3.45-.31,6.93,.41,10.36,.94,1.9,1.65,3.86,1.18,6.04-.17,.86-.72,1.55-1.06,2.32-.03,1.14,1.72,1.39,1.36,2.69-1.25,2.44-.75,5.06-.86,7.62-.07,1.61,.08,3.59-2.62,2.54-1.52-.31-2.89-.93-4.05-1.98Z"/>
      <path class="cls-59" d="M138.95,191c2.49,4.4,1.13,9.36,1.8,14.02,1.49,10.29,1.52,20.77,2.32,31.17,.78,10.04,1.78,20.06,2.69,30.1-.91-.78-1.5-1.72-1.6-2.95-1.88-24.1-4.08-48.18-5.22-72.33Z"/>
      <path class="cls-39" d="M216.79,298.06c2.64-.29,1.05-2.14,1.22-3.32,.37-2.56-1.17-5.62,1.96-7.46,.47-1.13,1.39-1.1,2.37-.93,.45,.19,.76,.52,.94,.98-.09,.22-.18,.44-.27,.66-3.4,1.89-2.28,4.44-1,7-1.09,2.56,2.31,4.51,.95,7.11-2.06-1.34-4.11-2.68-6.17-4.02Z"/>
      <path class="cls-118" d="M230.78,310.11c4.44,5.18,3.84,11.72,3.98,17.7,.1,4.42,1,5.88,5.2,5.17,.04,.32,.08,.64,.13,.96-2.27-.04-4.54-.08-6.81-.12,0-.24-.1-.45-.28-.61,.85-7.86,.51-15.6-2.21-23.11Z"/>
      <path class="cls-39" d="M122.22,273.64c-.08,1.78-.16,3.55-.23,5.33-1.99-7.42-.53-14.97-.84-22.45,1.37,5.64,.71,11.41,1.07,17.12Z"/>
      <path class="cls-59" d="M137.89,175.34c.11-1.39,.22-2.79,.33-4.18,1.06,2.53,1.94,1.18,2.82-.13,.06,2.85-.57,5.52-1.99,8-.57-.11-.68-.71-1.07-1.01-.03-.89-.06-1.79-.09-2.68Z"/>
      <path class="cls-42" d="M138.04,159.03c-.32,2,.8,4.23-.98,6-.19-4.11-1.92-8.2-.14-12.32,.53,2.08-.71,4.47,1.11,6.33Z"/>
      <path class="cls-42" d="M137.98,178.02c.36,.34,.71,.67,1.07,1.01-.03,3.84-.06,7.69-.09,11.53-.83-4.14-1.09-8.32-.98-12.54Z"/>
      <path class="cls-33" d="M164.97,128.86c-.71,1.84-1.89,3.08-3.99,3.16,1.03-1.43,2.32-2.54,3.99-3.16Z"/>
      <path class="cls-14" d="M239.89,139.73c.24-.27,.48-.55,.72-.82,2.31-.67,4.66-.27,6.99-.3,1.72,.79,3.05,2.14,4.04,3.64,3.53,5.37,8.51,6.76,14.66,6.47,6.63-.31,13.32-.5,19.91,.85,1.79,.37,3.68,.37,4.91,2.04,.76,2.76,.09,5.15-1.87,7.21-1.08,.88-2.42,1.45-3.7,1.02-8.4-2.81-17.11,1.32-25.53-1.23-1.66-.5-3.42,.34-4.51,1.59-3.91,4.49-7.55,8.87-7.27,15.67,.37,9.08,.63,18.21-.25,27.3-.28,.84-.77,1.52-1.53,2-1.44,.62-2.82,.19-4.22-.2-1.18-.44-2-1.22-2.29-2.49-.93-12.55-.16-25.11-.42-37.65,.07-.61-.22-1.41,.51-1.77,.75-.37,1.23,.18,1.52,.79,.89,1.88,.67,3.89,.57,6.18,2.3-3.76,4.02-7.62,6.74-10.76,2.85-3.28,2.56-6.17-.01-9.31-1.05-1.28-2.1-2.58-3.05-3.93-1.97-2.78-3.6-1.91-5.28,.21-.6-.03-.92-.33-.98-.93,.1-1.87-.33-3.77,.35-5.59Z"/>
      <path class="cls-46" d="M240.92,203.3c.4,.77,1.11,.82,1.85,.8,2.34,2.87,5.58,.23,8.21,1.33,1.12,.55,1.96,1.42,2.7,2.4,2.06,2.58,2.58,5.32,.88,8.3-.38,.64-.9,1.15-1.49,1.6-2.43,1.45-4.95,2.77-7.67,3.58-4.5,1.34-6.83,.13-8.79-4.27-.7,4.17,3.88,4.5,5.65,7.05,.46,1.74-.86,3.48,0,5.23-.18,1.02-.95,1.45-1.78,1.84-1.81,.63-3.52,1.42-4.92,2.8-1.09,1.09-2.32,1.7-3.82,.68-1.44-1.85-4.27-1.66-5.54-3.76-.94-2.36,.46-5-.87-7.32-.67-1.83-1.32-3.67-3.33-4.52-.86-.41-1.72-.82-2.58-1.23-5.76-3.79-5.81-6.1-.12-9.68,2.71-1.71,3.89-4.92,6.63-6.56,1.1-.29,1.98,0,2.62,.95,1.11,2.46,.54,5.05,.53,7.6,0,.32,.09,.63,.11,.94,.34-.45-.17-.88-.04-1.35,.44-1.93,.38-3.95,1.37-5.73,.91-1.07,2.02-1.65,3.46-1.4,1.71,.9,3.42,2.09,5.14,.02,.73-.14,1.41-.15,1.77,.68Z"/>
      <path class="cls-19" d="M232,138.05c.67-.18,.98,.15,1.09,.76,.7,1.45,.3,2.98,.37,4.48-.06,.55-.36,.91-.89,1.07-.52,0-1-.13-1.45-.37-1.93-.89-2.79,.69-3.63,1.78-2.79,3.68-6.5,4.66-10.95,4.69-7.96,.05-15.92-.41-23.91,.54-3.87,.46-6.77,2-9.59,4.26-3.32-2.59-2.79-6.46-3.3-9.98,.17-3.71,2.58-5.5,5.71-6.68,4.24-.06,8.59-.88,11.96,3.01,1.06,1.23,3.11,.96,4.77,.98,4.82,.05,9.64,0,14.46,.03,2.74,.02,5.39-.36,7.44-2.28,2.31-2.16,5.37-1.29,7.94-2.29Z"/>
      <path class="cls-86" d="M248,139.04c-2.47-.04-4.93-.09-7.4-.13,.39-.84,1.07-1.23,1.98-1.22,17.13,.18,34.27-.55,51.4,.37,.31,.6,.19,1.09-.35,1.49-3.45,1.05-7.01,1.73-9.86,4.32-1.49,1.36-3.65,1.48-5.66,1.55-2.98,.09-6-.25-8.95,.11-8.07,.98-14.99-1.45-21.17-6.48Z"/>
      <path class="cls-51" d="M232,138.05c-9.18,7.58-20.16,5.9-30.81,6-2.02,.02-4.68,.24-5.53-1.4-2.54-4.85-6.76-3.46-10.64-3.61-1.37,.66-2.75,1.33-3.01-1.08,16.67-.42,33.33-.65,49.99,.09Z"/>
      <path class="cls-48" d="M232.83,144.04c.09-1.74,.17-3.48,.26-5.22,1.51,1.55,.7,3.47,.71,5.19,.12,19.53,.16,39.07,.22,58.6-.93,.52-1.86,1.03-2.79,1.55-.83,.38-1.43,1.93-2.61,.52-.12-.81,0-1.57,.49-2.25,2.32-1.87,2.47-4.45,2.52-7.18,.19-9.91-.58-19.84,.46-29.74,.01-.11-.06-.22-.09-.33-.15,.06-.31,.12-.48,.18-3.88-1.69-5.63-5.43-8.13-8.43-.63-.75-1.03-1.94-.55-2.82,2.23-4.08,3.99-8.65,9.17-10.06h0c.76,1.31,.57,2.63,.25,3.95,.7-1.19-.13-2.72,.58-3.96Z"/>
      <path class="cls-1" d="M297.95,137.95c.34,.37,.68,.74,1.02,1.1,1.62,1.34,2.94,3.02,4.8,4.08,.37,.23,.72,.49,1.05,.77,1.42,1.37,2.9,2.66,4.74,3.46,4.62,3.57,9.63,6.64,13.75,10.84,1.18,1.32,2.51,2.45,4.03,3.35,2.56,2.22,5.02,4.54,7.13,7.22,.38,1.05,.99,2.07,.48,3.26,0,.67-.02,1.34-.03,2-1.87,1.24-2.82-.25-3.58-1.43-4.39-6.71-11.06-10.89-17.22-15.62-4.87-3.74-9.59-7.66-14.44-11.42-1.61-1.25-2.85-2.77-3.44-4.76-.23-1.06-.02-2,.73-2.81,.32-.01,.65-.03,.97-.04Z"/>
      <path class="cls-16" d="M240.92,203.3c-.59-.23-1.18-.45-1.77-.68,.02-19.39,.02-38.77,.09-58.16,0-1.57-.71-3.32,.65-4.73,.09,2.09,.19,4.17,.28,6.26,1.58,1.74,.93,4.12,1.75,6.09,.27,1.36,.26,2.72,0,4.08-.94,2.25,.03,5-1.77,7.03-.04,11.76-.11,23.52-.07,35.28,0,1.61,.56,3.23,.85,4.84Z"/>
      <path class="cls-39" d="M296.98,138c0,1.02,.02,2.04,.02,3.06,.69,2.54,3.29,4.74,1.38,7.74-3.08-1.2-3.72-2.73-2.85-6.37-1.2,5.7-2.58,11.35-3.97,17.01-.42,1.74-.54,3.63-2.27,4.75-.53,.22-1.04,.17-1.54-.12-1.47-2.39,.13-4.15,1.21-6.03l1.89-6.07c-1.5-4.88-.2-9.12,2.91-12.97,.08-.31,.15-.63,.22-.94,1-.02,2-.04,3-.06Z"/>
      <path class="cls-17" d="M182.01,137.96c.69,1.25,1.89,1.05,3.01,1.08-.79,2.42-4.59,2.84-4.06,6.14-2.41-.34-1.72-2.25-1.89-3.73,.03-.82,.28-1.55,.84-2.17,.04-.41,.07-.82,.11-1.24,.64-.46,1.31-.43,1.98-.08Z"/>
      <path class="cls-11" d="M355.95,306.98c-1.67,1.66-4.05,.86-5.95,1.95,6.18-6.29,7.81-13.64,8.47-22.2,.69-8.91,1.18-17.92,1.97-26.84,.77-8.7,1.25-17.53,1.61-26.32,.61-14.6,2.43-29.16,2.6-43.75,.08-6.28,.43-12.78-.84-19.04-.55-2.72-1.08-6.08-4.87-6.75,0-1.67,0-3.33,0-5,4.4,2.05,8.36,8.86,8.28,13.58-.19,11.34,.64,22.77-.57,33.99-.91,8.5,1.13,17.34-2.56,25.54-.07,.15-.12,.34-.08,.49,2.17,7.84-1.12,15.62-.23,23.44,.06,.5,.24,1.03,.12,1.48-2.16,7.69,.15,15.84-2.15,23.38-1.14,3.73,.18,7.1-.32,10.7-.79,5.62-3.05,10.45-5.49,15.35Z"/>
      <path class="cls-107" d="M174.94,139.01c-.63-.01-1.26-.03-1.89-.04-.47-1.03-2.18,.27-2.41-1.6,1.89-.62,3.4-.47,4.31,1.64Z"/>
      <path class="cls-132" d="M179.91,139.28c0,.61-.02,1.22-.02,1.83-.45,.62-.76,1.5-1.83,.94-.02-1.01-.04-2.01-.06-3.02,.64,.08,1.27,.16,1.91,.24Z"/>
      <path class="cls-23" d="M125.09,307.9c-1.02-.64-2.03-1.28-3.05-1.92-3.18-8.18-5.33-16.83-5.59-25.4-.31-10.05-1.38-20.06-1.42-30.12-.01-3.6-.7-7.09-1.99-10.46,.07-14.66-1.29-29.32,0-43.98,1.48,2.82,2.42,5.61,1.28,8.92-.56,1.64-.7,3.81-.12,5.41,3.04,8.41,1.65,17.29,2.33,25.85,.65,8.17,1.35,16.49,1.7,24.76,.33,7.8,.82,15.67,1.35,23.46,.57,8.23,2.3,15.47,6.94,22.12,.34,.48,1.19,.89,.05,1.32-.44,.16-.98,.03-1.48,.04Z"/>
      <path class="cls-35" d="M101.05,365.95c2.91,.72,.52,1.95,.11,2.66-3.47,6.13-2.3,10.55,3.58,14.79,5.28,3.8,11.52,5.06,17.47,7.03,5.4,1.79,9.59,4.82,11.54,10.08,3.31,8.96,10.1,11.46,18.81,11.45,59.24-.06,118.47-.06,177.71,.01,7.51,.01,14.07-1.61,18.68-8.04-.98,4.6-5.6,8.37-11.1,8.95-1.32,.14-2.66,.04-3.99,.04-61.61,0-123.21-.04-184.82,.05-7.38,.01-12.93-2.21-15.78-9.51-2.75-7.04-7.94-11.01-15.41-12.68-4.62-1.04-9.16-2.9-13.23-5.54-8.06-5.23-9.16-11.22-3.58-19.3Z"/>
      <path class="cls-35" d="M378.95,364.95c5.64,3.85,6.8,11.27,2.39,16.04-1.65,1.79-3.59,3.31-5.39,4.95-.67,.33-1.33,.67-2,1-8.32,2.8-17.33,4.31-22.84,12.33-.48,.71-1.25,1.05-2.15,.66h0c.84-6.28,5.49-8.99,10.57-11.31,5.12-2.34,11.01-2.46,15.85-5.61,7.63-4.98,8.4-8,4.01-16-.36-.65-1.38-1.14-.43-2.06Z"/>
      <path class="cls-35" d="M348.96,399.94c5.08-6.79,12.16-10.21,20.16-12.23,1.61-.41,3.17-.84,4.83-.77-3.13,1.32-6.16,3.01-9.41,3.9-6.95,1.9-10.97,7.33-15.58,12.1v-3Z"/>
      <path class="cls-112" d="M337.96,393.94c.18,3.88-2.53,5.11-5.57,5.89-1.1,.28-2.32,.11-3.48,.11-57.92,0-115.84-.01-173.75,.03-4.68,0-8.59-.91-10.12-6.02,1.56-.89,3.26-.46,4.89-.46,61.05-.02,122.09-.02,183.14,0,1.63,0,3.33-.42,4.89,.46Z"/>
      <path class="cls-56" d="M373.95,366.95c5.64,4.9,3.93,11.94-3.77,14.74-4.33,1.57-8.82,2.72-13.27,3.9-7.93,2.11-10.83,8.38-12.95,15.34-4.15,5.32-9.99,6.01-16.15,6.01-39.47-.03-78.95-.01-118.42-.01-18.82,0-37.64-.09-56.46,.07-4.58,.04-8.55-.87-11.88-4.06-1.44-2-2.69-4.12-3.76-6.33-.85-1.75-.55-3.17,1.69-3.55,.65,.35,1.74-1.1,1.96,1.25,.63,6.71,4.13,9.6,10.9,9.6,60.08,.04,120.17,.03,180.25,.02,4.74,0,8.31-1.84,10.15-6.49,.92-2.33,1.4-4.96,3.79-6.45,1.69-1.8,.65-4.03,.94-6.04,7.85-1.46,15.7-3.05,23.21-5.75,4.73-1.7,5.95-6.15,3.49-10.53-.45-.8-1.77-1.44,.28-1.71Z"/>
      <path class="cls-115" d="M337.96,393.94H145.04c-.32-.39-.64-.78-.96-1.17,11.63-.05,23.26-.14,34.89-.15,51.35-.02,102.7,0,154.05,0,1.99,0,3.98,.11,5.97,.17-.34,.38-.69,.76-1.03,1.15Z"/>
      <path class="cls-55" d="M138.96,393.06c-1.82,1.24-1.12,2.59-.34,4.12,.94,1.85,1.62,3.83,2.42,5.76-3.55-2.35-5.05-5.94-5.99-9.87,1.31,0,2.61,0,3.92,0Z"/>
      <path class="cls-6" d="M238.04,356.94c2.44,6.05,1.82,6.56-7.01,5.78-1.16-6.68-.77-7,7.01-5.78Z"/>
      <path class="cls-114" d="M238.04,356.94c-4.13-.25-8.3-.55-7.01,5.78-1.57-1.89-1.5-4.77-.29-5.81,1.92-1.65,4.85-1.45,7.3,.03Z"/>
      <path class="cls-55" d="M141.04,402.94c4.96,3.45,10.6,3.03,16.23,3.02,53.91-.04,107.82-.02,161.73-.03,8.64,0,17.61,1.52,24.96-4.99-2.21,6.78-8.52,5.64-13.54,6.96-.62,.16-1.33,.04-1.99,.04-58.92,0-117.83,0-176.75,.01-4.37,0-8.27-.84-10.64-5.01Z"/>
      <path class="cls-110" d="M275.07,359.2c2.53,2.31,2.37,5.2,3.56,7.43,.42,.8,.19,1.87-.78,1.97-1.62,.18-3.32,.17-4.93-.12-1.05-.19-.75-1.29-.47-2.08,.81-2.28,1.64-4.54,2.62-7.21Z"/>
      <path class="cls-64" d="M131,387.94c0,1.33,0,2.66,0,4-6.57-3.4-13.65-5.23-20.74-7.15-9-2.43-11.19-10.17-5.25-17.78,1.54,1.03,.62,2.25,.37,3.51-1.12,5.49,.5,8.76,5.42,11.32,6.35,3.3,13.4,4.31,20.2,6.11Z"/>
      <path class="cls-39" d="M123.02,282.98c.67,1,1.35,2,2.02,3-1.28,3.31,.5,6.31,1,9.43,.25,1.56,1.23,3.03,0,4.56,0,0,0,0,0,0-3.55-5.21-4.04-10.97-3.03-16.99Z"/>
      <path class="cls-57" d="M330.96,305.97h3c-5.43,5.21-12.75,6.81-19.28,9.83-9.12,4.22-18.59,7.66-26.56,14.04-1.09,.87-2.11,1.57-2.13,3.09-1.36-.19-3.28,.73-3.76-1.31-.4-1.68,1.21-2.59,2.25-3.59,6.38-6.1,15.15-7.76,22.5-12.06,7.75-3.93,15.92-6.84,23.99-10Z"/>
      <path class="cls-80" d="M126.05,299.98c.14-2.98-1.07-5.68-1.67-8.51-.4-1.86-.98-3.83,.66-5.48,.04,8.57,3.74,15.39,10.01,20.99-4.16-.84-5.51-5.29-9-7Z"/>
      <path class="cls-3" d="M300.95,332.98c-1.99-.02-3.97-.03-5.96-.05,4.19-3.89,9.46-5.84,14.59-7.99,2.13-.89,4.43-1.35,6.22-2.94,0,2.98,.01,5.97,.02,8.96-4.76,2.1-9.82,2.05-14.87,2.02Z"/>
      <path class="cls-15" d="M300.95,332.98c4.9-1.12,9.73-2.73,14.87-2.02,.49,2.12-.24,3.03-2.51,2.94-4.12-.17-8.25-.15-12.38-.22,.02-.23,.03-.47,.01-.7Z"/>
      <path class="cls-49" d="M190,332.92c.69,.1,1.39,.2,2.08,.3,.04,.26,.02,.51-.07,.76-9.96-.07-19.91-.14-29.87-.21-.02-.29,0-.58,.02-.88,.45-.41,.95-.73,1.51-.95,4.71-.9,9.46-.28,14.19-.4,2.35-.18,4.7,.12,7.05-.02,1.85-.1,3.52,.47,5.08,1.39Z"/>
      <path class="cls-2" d="M163.04,332.93h-.44s-.44-.02-.44-.02c.02-4.31,.04-8.62,.06-12.93,.27,0,.54,0,.82,0,.44,.37,.75,.83,.95,1.37,.48,1.65,.39,3.35,.42,5.04,.03,2.28,.3,4.62-1.36,6.55Z"/>
      <path class="cls-60" d="M330.96,305.97c-7.59,4.3-15.7,7.37-23.99,10,3.28-4.12,8.49-4.7,12.86-6.63,3.46-1.53,6.99-3.73,11.13-3.36Z"/>
      <path class="cls-51" d="M273.99,249c-3.44,.46-3.82,3.8-5.5,5.9-2.79,3.48-4.75,3.12-6.99-.8-3.28-5.76,.38-10.6,1.85-15.59,2.14-7.28-.93-18.19-8.34-20.5-.36-.45-.43-.94-.2-1.47,1.69-3.53,4.06-2.08,6.09-.59,5.31,3.9,8.99,8.74,8.43,15.86-.19,2.47,.14,4.98-.34,7.42-.55,2.8,.44,4.44,3.26,4.96,1.74,1.18,3.02,2.54,1.74,4.81Z"/>
      <path class="cls-10" d="M273.99,249c-.16-1.58-.7-2.98-2-4-.6-.69-.56-1.39-.08-2.12,4.41,1.47,5.56,4.78,5.11,9.01,.36,1.52,1.72,1.86,3.5,2.68-4.46,.61-5.57,3.3-5.55,6.87,.03,5.43,2.67,9.67,7.18,11.48,7.69,3.09,15.65,2.23,23.58,1.6,1.08-.09,2.11-.85,3.65,.04-2.98,1.21-5.7,2.32-8.42,3.42-8.23-.06-16.59,.89-23.77-4.83-5.67-4.52-7.4-13.07-2.97-18.74,1.75-2.24,1.72-3.69-.25-5.42Z"/>
      <path class="cls-16" d="M255.05,216.97c-.01,.35-.02,.69-.04,1.04-.96,.38-1.63,1.04-2.02,2-.33,.33-.67,.67-1,1,.84,1.82,2.42,2.91,4,4,.02,.82,.19,1.57,1,2,.34,3,2.4,5.81,1,9-.95,1.54-1.11,3.24-1,5-2.21,1.4-1.76,4.12-3,6,.02,2.66,.04,5.32,.06,7.98,.31,1.67,.63,3.34,.94,5.01-.39,.01-.79,.03-1.18,.04-2.93-1.07-2.03-3.68-2.23-5.77-.2-2.08-.07-4.2-.04-6.29-.14-4.07-.27-8.05,1.66-11.94,1.22-2.46,.02-5.04-1.25-7.46-1.13-2.16-3.46-3.58-3.71-6.23,.16-3.14,3.4-3.69,4.84-5.75,.34-.22,.68-.45,1.03-.67,.82-.1,1.3,.11,.95,1.06Z"/>
      <path class="cls-19" d="M331.94,220.01c-.89,.69-1.04,1.67-.96,2.68,.64,8.54-3.2,16.33-4.19,24.63-.63,5.33-3.33,6.38-8.42,4.34-1.79-.72-3.57-.59-5.37-.68,0-.65,0-1.29,0-1.94-1.25-2.05,0-2.87,1.71-3.46,.8,0,1.57,.16,2.33,.34,4.86,.54,5.84-2.91,6.44-6.48,1.24-7.36,2.05-14.8,2.7-22.2,1.04-11.87,2.79-23.71,2.45-35.68-.2-6.97-8.14-16.7-14.87-18.25-2.72-.63-3.3,.86-2.95,3.04,.55,3.44,.86,6.92,1.16,10.38,.39,4.65-1.36,6.51-4.92,5.99-.5-.09-.95-.3-1.36-.6-.98-1.19-1.32-2.65-1.75-4.08-.53-2.37-1.14-4.72-1.8-7.06-.49-2.41-1.11-4.78-2.19-7.01-1.32-3.37-2.29-6.82-2.26-10.49,.86-5.44,.82-5.17,5.62-2.92,8.16,3.83,15.07,9.38,22,14.95,4.21,3.39,6.7,8.11,9.59,12.53-.88,11.17-1.79,22.35-2.63,33.52-.21,2.81-.21,5.64-.3,8.45Z"/>
      <path class="cls-10" d="M334.87,178.04c-1.03-.1-2.08-.37-2.46-1.38-2.54-6.69-8.77-9.93-13.3-14.77-5.51-5.88-13.47-7.18-19.34-12.17-1.38,1.05-.5,2.52-.94,3.66-2.16-.93-2-2.4-.96-4.08,.74-2.85-.83-5.46-.86-8.23,5.89,6.35,13.14,11.04,19.86,16.37,5.97,4.73,12.43,8.93,16.35,15.79,.26,.45,1.13,.55,1.72,.82-.02,1.34-.04,2.67-.06,4.01Z"/>
      <path class="cls-83" d="M322.97,159.03c-4.66-3.67-9.33-7.33-13.99-11-1.83-1.13-3.14-2.91-5-4-1.49-1.59-5.23-2.49-1.75-5.64,1.3-.5,2.53-.43,3.67,.44,.07,5.36,4.53,6.88,8.08,9.19,8.22,4.89,14.9,11.66,21.9,18.05,0,.66-.02,1.33-.03,1.99-.47,.64-.76,1.61-1.88,.95-2.73-1.93-5.07-4.26-7-7-1.38-.93-2.59-2.11-4-3Z"/>
      <path class="cls-37" d="M335.87,166.08c-2.89,.98-3.4-2.08-4.83-3.21-5.91-4.67-11.42-9.85-17.07-14.84,1.33,.33,2.67,.67,4,1,6.55,3.69,10.75,10.37,17.53,13.82,1.01,.51,.34,2.12,.37,3.23Z"/>
      <path class="cls-39" d="M333.96,169.03c.63-.32,1.26-.63,1.88-.95,0,1.38,.52,2.88-.88,3.95-.33-1-.67-2-1-3Z"/>
      <path class="cls-97" d="M305.9,138.84c-1.31,.07-2.61,.13-3.92,.2-.64,.56-1.27,.63-1.86-.07,.29-.66,.57-1.31,.86-1.97,1.68-.6,3.35-.85,4.98,.14-.02,.57-.04,1.14-.06,1.7Z"/>
      <path class="cls-39" d="M300.11,138.97c.62,.02,1.24,.05,1.86,.07-1.56,2.56,1.59,3.23,2,4.99-2.78-.55-4.43-2.22-5-4.98,.38-.03,.76-.06,1.14-.08Z"/>
      <path class="cls-62" d="M305.96,137.14c-1.66-.05-3.32-.09-4.98-.14,1.7-1.38,3.37-1.55,4.98,.14Z"/>
      <path class="cls-27" d="M314.83,245.72c-1.01,.89-2.2,1.68-1.85,3.33-1.59,2.88-3.88,3.99-7.29,3.88-7.79-.26-15.59-.12-23.38-.06-1.86,.01-3.62-.16-5.29-.97-1.36-3.17-2.06-6.71-5.03-8.97-3.19-1.19-3.34-3.12-1.35-5.57,.89-.49,1.87-.68,2.86-.68,14.68,.03,29.36-.42,44.03,.23,.56,.16,1.08,.44,1.52,.81,.87,3.87-1.85,5.85-4.22,8.01Z"/>
      <path class="cls-83" d="M297.26,255c3.65,0,7.31-.1,10.96,.03,3.62,.14,6.64,1.84,7.55,5.36,1,3.89,.17,7.4-3.93,9.71-9.3,5.24-18.92,3.03-28.43,1.35-3.08-.54-6.14-7.48-5.24-10.47,1.26-4.18,4.23-6.12,8.63-6,3.48,.09,6.97,.02,10.46,.02Z"/>
      <path class="cls-45" d="M328.19,265.24c-.51-.39-1.13-.69-1.5-1.19-.65-.87-1.5-1.8-.91-3.01,.16-.33,.87-.72,1.16-.62,1.42,.51,.89,1.85,1.04,2.89,.09,.64,.14,1.28,.21,1.92,0,0,0,0,0,0Z"/>
      <path class="cls-50" d="M257.99,236c-.33-3-.67-6-1-9,1.73,2.84,3.11,5.73,1,9Z"/>
      <path class="cls-50" d="M255.99,225.01c-2.16-.51-4.02-1.32-4-4,1.71,.96,3.04,2.29,4,4Z"/>
      <path class="cls-50" d="M254,247c.36-2.32-.03-5.01,3-6-1.2,1.9-.98,4.51-3,6Z"/>
      <path class="cls-46" d="M252.97,247.05c.3,4.33-.31,8.72,.84,12.99-.54,4.55,1.04,9.09,.06,13.64-1.99,2.82-.9,5.99-1.04,9.03-.63,2.22-2.48,2.46-4.32,2.53-3.46,.14-6.93,.21-10.39-.03-2.29-.16-4.74-.39-5.28-3.41-.29-1.59-1.59-1.48-2.71-1.48-4.52,0-7.72-2.49-10.64-5.56-1.4-1.54-1.53-3.42-1.48-5.35,0-.55,0-1.1,.01-1.65,.01-.83,.06-1.66,.27-2.47,.73-6.24,.29-12.49,.29-18.74,0-3.39,.46-6.53,2.45-9.33l-.12-.41c.8-1.51,2.27-1.89,3.76-2.24,2.37-.47,4.63-2.28,7.19-.62,3.66,.64,4.77-3.96,8.13-3.95,.84,.82,2.2,.33,3.02,1.19,.53,.39,1.01,.84,1.47,1.3,.48,.44,.94,.9,1.4,1.36,1.66,1.77,3.59,3.27,4.92,5.34,.88,2.57,1.18,5.3,2.15,7.84Z"/>
      <path class="cls-84" d="M251.07,287.26c.31,.24,.62,.48,.92,.72,1.84,5.54-1.71,12.3-7.75,13.58-4.47,.95-9.17,1.07-13.56-1.04-4.56-2.19-7.05-7.43-6.01-12.67,1.16-1.11,2.63-1.56,4.11-1.98,5.94-.56,11.89-.23,17.84-.24,1.63,0,3.36-.02,4.43,1.63Z"/>
      <path class="cls-30" d="M219.73,273.78c3.59,2.59,6.87,5.67,11.92,5.09,3.42-.39,5.64,.47,1.7,3.88,5.25,2.19,10.43,1.59,15.53,1.56,1.81-.01,3.27-.68,3.18-2.91,1.08,.09,1.43,.95,1.86,1.74,.08,.83,.49,1.44,1.26,1.79-.03,1.41-1.02,1.53-2.06,1.51-11.46-.14-22.92,.29-34.38-.02-.79-.02-1.78,.04-1.38-1.3,.54-.48,1.08-.96,1.62-1.43,1.68-2.29,.68-4.3-.65-6.29-.3-1.5-.59-3,1.39-3.63Z"/>
      <path class="cls-62" d="M225.01,287.98c.02,9.57,6.06,13.3,14.64,13.05,8.47-.25,12.17-3.95,12.35-13.05,.67,0,1.33,0,2,0-.03,9.36-5,14.9-13.46,14.99-12.44,.13-17.31-4.03-17.53-15,.67-.6,1.33-.53,2,0Z"/>
      <path class="cls-116" d="M217.37,285.14c.45,1.66,1.83,1.09,2.87,1.1,10.61,.04,21.21,.07,31.82,.01,1.11,0,2.82,.84,3.14-1.31,.5,4.09-2.93,1.21-4.11,2.32-7.76,0-15.52,0-23.28-.02-1.61,.35-3.21,.32-4.82,.02-1,0-2,0-3,.01-.79-.8-3.98,1.3-2.6-2.14Z"/>
      <path class="cls-63" d="M253.93,283.15c-.62-.58-1.24-1.16-1.86-1.74-1.71-3.12-1-5.67,1.81-7.73,0,3.16,1.73,6.3,.05,9.47Z"/>
      <path class="cls-66" d="M225.99,201.98c-2.35,3.19-3.07,7.77-8.57,8.08-2.21,.12-1.4,2.86-.58,4.4,.66,1.23,2.58,1.58,2.6,3.38-6.82,4.78-9.5,12.62-6.88,20.26,.64,1.87,1.58,3.65,2.15,5.54,.74,2.44-.73,5.47-2.56,4.77-3.75-1.45-8.31-1.23-11.25-4.63-1.24-2.59,.97-4.04,1.91-5.91,.85-1.39,.19-2.75-.09-4.12-.51-1.9-.93-3.83-1.5-5.72-.34-1.29-.55-2.6-.96-3.88-.34-1.27-.53-2.57-.92-3.82-.35-1.24-.48-2.53-.92-3.75-.16-.4-.3-.81-.43-1.22-.7-2.06-1.07-4.21-1.74-6.28-.33-1.05-.67-2.1-1.02-3.15-.42-1.53-.7-3.09-1.19-4.6-.14-.45-.25-.91-.34-1.37-.36-1.94-1.18-3.74-1.69-5.63-.33-1.36-.36-2.73-.37-4.12,1.09-6.31,3.22-12.39,2.93-19.02-.15-3.33,3.02-5.59,6.35-6.11,6.42-1.01,12.93-.92,19.35-.09,3.56,.46,6.36,2.98,6.7,6.52,.92,9.58,.89,19.21,0,28.81-.06,.64-.58,1.18-1.01,1.69Z"/>
      <path class="cls-27" d="M203.99,238c-1.02,1.92-2.05,3.85-3.07,5.77-1.06,1.05-2.11,2.11-2.04,3.77-.56,1.96-.27,4.3-2.44,5.56-1.3,.84-2.76,1.26-4.26,1.19-9.37-.45-18.87,1.58-28.1-1.46l-1.87-1.24c-1.02-.19-1.81-.76-2.53-1.47-2.15-2.7-3.36-5.97-5.3-8.8-1.17-1.71-1.25-3.39,1.09-4.35,15.65-.66,31.3-.61,46.95-.04,.62,.21,1.15,.56,1.57,1.06Z"/>
      <path class="cls-10" d="M196.95,251.83c.64-1.43,1.29-2.86,1.93-4.28,.05,2.15,1.42,3.23,3.21,3.99,3.64,1.54,5.25,4.91,7.17,7.99,1.35,2.17,.58,4.14-.58,6.07-4.7,7.77-11.33,12.33-20.66,12.39-1.66,.01-3.32,0-4.98,0,3.12-1.68,6.72-.98,9.99-1.99,2.66-.82,5.61-1.03,7.01-4.01,.18-3.33,3.13-5.71,2.82-9.39-.3-3.5-.42-6.62-4.27-8.16-.98-.39-2.19-1.06-1.62-2.62Z"/>
      <path class="cls-16" d="M224.74,235.81c-1.47-.43-2.53,.7-3.8,1.01-5.37-4.39-1.67-8.43,.98-11.87,1.83-2.38,1.93-3.87,.11-5.87,2.47,.13,2.96,2.3,4.01,3.89,1.16,2.18,.12,4.51,.46,6.74-.2,2.15-.44,4.29-1.76,6.12Z"/>
      <path class="cls-44" d="M218.92,268.32l-.05,.46c-.81,2.87,.03,5.82-.45,8.7-.17,.21-.33,.42-.5,.63-2.06-6.29-.38-12.76-.98-19.12,.02-4.79,0-9.59,.1-14.38,.03-1.57-.61-3.37,1.09-4.56,1.87,5.16,.47,10.51,.85,15.76,.13,1.82,.02,3.66,.02,5.48,.45,2.35-1.03,4.68-.09,7.04Z"/>
      <path class="cls-9" d="M221.05,237.23c-1.81,8.43-.78,16.97-1.03,25.45-.03,1.16,.1,2.34-.74,3.31-1.42-1.27-.46-2.94-.75-4.41,.31-7.51-.63-15.04,.51-22.53,.28-1.04,.78-1.84,2.02-1.83Z"/>
      <path class="cls-46" d="M219.03,239.06c-.04,7.7-.08,15.4-.13,23.11-.43,.19-.64,.05-.63-.42-.05-7.24-.1-14.47-.14-21.71,.3-.33,.6-.65,.9-.98Z"/>
      <path class="cls-17" d="M196.95,251.83c.09,.14,.17,.29,.28,.41,2,2.2,6.55,1.45,6.75,5.72,.24,5.1,.84,10.33-3.95,14.03-9.48,3.93-19.26,3.79-29.13,2.11-5.01-.86-8.65-3.43-10.61-8.44-1.78-4.54-.64-8.94,3.95-10.44,4.57-1.49-1.56-1.54-.15-2.38,9.05,0,18.1-.03,27.15,.02,2,.01,3.93-.03,5.72-1.04Z"/>
      <path class="cls-14" d="M161.03,250.05c1.03,.03,1,.87,1.18,1.55-.01,3.9-3.6,4.29-5.91,5.15-2.58,.95-3.51-1.89-4.15-3.93-2.42-7.71-2.8-15.74-3.78-23.71-.78-6.37,.25-12.97-2.33-19.11,0-.33,0-.67,0-1,.03-6.74-2.05-13.39-.78-20.17,4.04-.07,3.86,3.26,3.91,5.61,.29,13.74,2.85,27.28,3.35,41,.12,3.46,1.01,6.88,1.98,10.22,.94,3.23,2.82,5.22,6.54,4.38Z"/>
      <path class="cls-48" d="M146.04,189.02c-1.53,1.36-1.07,3.03-.64,4.62,1.36,5.08,.3,10.25,.64,15.37-1.37-6.2-1.71-12.52-2.2-18.81-.04-.48,.25-1.01,.17-1.47-2.93-16.23,8.25-24.3,18.93-32.62,3-2.33,6.03-4.71,9.35-6.51,2.43-1.32,2.71-3.58,3.75-5.56,.12-.73-.29-1.61,.74-2.15,.13,.83,.25,1.62,.38,2.4,1.41,1.55,1.1,3.39,.67,5.13-1.22,4.88-1.27,10.1-4.07,14.53-.42,.32-.9,.46-1.42,.4-2.47-2.64,.76-5.65-.72-8.94-8.78,5.32-16.55,11.51-22.35,19.9-1.71,2.47-1.9,5.58-1.99,8.59-.05,1.78,.28,3.69-1.23,5.13Z"/>
      <path class="cls-29" d="M172.91,164.03c1.78-6.5,3.37-13.05,4.24-19.75,.31-.74,.61-1.49,.92-2.23,.61-.31,1.22-.63,1.83-.94,.3,1.37-.02,2.91,1.07,4.07,.21,3.38,.97,6.66,2.05,9.86,2.2,2.98,3.2,6.07,.88,9.48-3.72,1.18-7.42,1.78-10.99-.48Z"/>
      <path class="cls-58" d="M163.03,320.97c0-.34,0-.67,0-1.01,.07-.65,.33-1.64,1-1.29,8.79,4.51,18.63,7.1,25.96,14.25-1.67,0-3.33,0-5,0-5.53-2.66-11.16-5.1-16.78-7.55-2.2-.96-4.11-2.16-5.19-4.4Z"/>
      <path class="cls-44" d="M219.07,277.83c1.58,1.98,2.61,3.95-.08,5.87-.02-1.93,.3-3.93-1.07-5.6,0,0,.33-.36,.33-.36,.3-.23,.58-.2,.82,.09Z"/>
      <path class="cls-37" d="M222.97,287.27c1.61,0,3.22-.02,4.83-.03-.73,1-1.81,.67-2.78,.74-.67,0-1.33,0-2,0,0-.24-.01-.48-.04-.71Z"/>
      <path class="cls-68" d="M252.85,208.36c-.62-.77-1.24-1.54-1.86-2.31-1.45-1.36-3.53,.29-4.98-1.05,.33-.33,.66-.66,1-.99,1.16-9.4,.63-18.84,.37-28.24-.2-7.03,3.78-11.4,7.98-15.8,1.59-1.67,4.02-2.01,6.51-1.68,4.45,.59,9.01,.7,13.39,.07,5.41-.77,8.97,1.19,11.67,5.54,1.42,1.94,.94,4.15,.89,6.31-.52,2.02-.41,4.36-2.75,5.48-2.6,1.23-3.13-.94-3.86-2.49-1.53-3.23-4.11-4.6-7.54-4.68-3.81-.08-7.62-.2-11.42,.03-5.11,.3-6.66,1.91-6.77,7.18-.16,7.61,.04,15.23-.09,22.84-.06,3.43,.06,6.99-2.55,9.79Z"/>
      <path class="cls-19" d="M293.76,139c-.97,4.32-1.94,8.65-2.9,12.97-8.74-2.55-17.75-2.39-26.62-1.79-8.81,.6-12.59-4.87-16.23-11.14,1.29,.18,3.07-.12,3.78,.62,4.99,5.11,11.26,4.71,17.49,4.34,6.16-.36,12.91,2,17.81-4.48,.89-1.18,4.39-.4,6.68-.52Z"/>
      <path class="cls-4" d="M240.14,163.19c.16-2.4-1.03-4.96,.86-7.15,.87,.68,1,1.64,1.04,2.64q3.66-4.55-.92-11.96c-.04-.23-.08-.45-.12-.68,.31-1.52-.93-3.73,1.02-4.43,1.51-.55,2.38,1.47,3.44,2.43,1.11,1,2.19,2.07,3.08,3.26,5.17,6.88,5.08,6.86,.37,13.97-2.54,3.84-4.83,7.84-7.41,12.07-1.39-3.47,.67-7.11-1.36-10.15Z"/>
      <path class="cls-24" d="M287.01,165.04c-7.94-9.46-18.47-6.02-28.2-5.21-5.06,.43-10.75,8.83-10.8,14.05-.07,8.32,.02,16.64-.05,24.96-.01,1.75,.67,3.7-.97,5.18,0-9.95,.23-19.9-.08-29.84-.23-7.23,4.51-11.38,8.77-15.88,1.24-1.32,3.34-1.73,5.15-1.07,3.57,1.29,7.48,1.54,10.78,.61,5.97-1.69,11.58,1.38,17.35,.21-.28,2.1-.57,4.19-.85,6.28-.11,.64-.33,1.1-1.1,.71Z"/>
      <path class="cls-16" d="M246,205c1.68,.26,3.62-.71,4.98,1.05-.66-.06-1.61-.42-1.92-.12-3.22,3.07-4.56,.02-6.28-1.82,1.07,.3,2.15,.6,3.22,.9Z"/>
      <path class="cls-4" d="M241,152.03c-1.77-1.81-.78-4-.84-6.04,.28,.03,.56,.04,.84,.04,0,0,0,0,0,0,1.15,2,1.85,4,0,6Z"/>
      <path class="cls-66" d="M252.85,208.36c2.12-11.05,.83-22.23,1.13-33.34,.16-6.03,1.92-7.9,8.11-7.98,4-.05,8,.06,11.99-.03,4.62-.1,7.88,1.87,8.7,6.44,.34,1.89,1.33,1.41,2.27,1.71,.72,.53,1.23,1.2,1.38,2.11,.06,1.09-.21,2.14-.39,3.2-.13,.64-.34,1.25-.67,1.81-1.02,1.17-1.32,2.65-1.78,4.07-1.08,2.01-1.34,4.26-1.83,6.44-.43,1.28-1.15,2.45-1.38,3.81-.1,2.48-1.01,4.87-.81,7.38-.03,.46-.15,.89-.35,1.3-1.92,1.53-2.01,3.79-2.36,5.94-1.04,2.27-1.9,4.6-2.52,7.01-.4,1.25-.89,2.48-1.16,3.77-.45,1.42-.55,2.89-.5,4.37-.25,1.96-1.13,3.76-1.49,5.7-.45,1.74-.92,3.47-1.07,5.27-.03,.22-.06,.45-.09,.67,.79,1.58,.53,3.59,1.97,4.91,0,.69,0,1.39,0,2.08-4.24,.29-5.25-1.2-4.45-5.63,1.5-8.3,1.34-16.52-6.78-22.12-1.95-1.35-3.66-3.06-5.71-.27-.32-.35-.64-.71-.95-1.06,.17-2.62,.78-5.3-1.25-7.55Z"/>
      <path class="cls-19" d="M225.99,201.98c0-9.16,.03-18.32,0-27.48-.02-5.78-2.7-8.43-8.52-8.46-4.66-.03-9.33-.09-13.99,.02-5.89,.13-8.09,2.86-7.54,8.78,.35,3.67,.33,7.4-1.9,10.57-1.3,1.84-.86,3.82-1.09,5.76-1.31,.09-1.66-.91-2.06-1.84-.62-2.4-1.56-4.71-2.12-7.13-.32-1.77-1.02-3.48-.81-5.33,.05-.53,.17-1.04,.35-1.54,1.75-2.62,1.48-5.75,2.04-8.65,1.05-5.43,4.22-8.62,9.56-9.46,6.44-1.01,12.95-.93,19.4-.11,6.04,.77,8.34,5.99,11.26,10.43,.71-.75,.58-1.92,1.44-2.5,.04-.94,.09-1.89,.13-2.83,.28,0,.56,.02,.83,.03,0,12.48,0,24.96,0,37.44,0,2.63-1.54,3.46-3.9,3.33-.35,.54-.63,.48-.87-.09-.53-.78-1.23-1.18-2.2-.93Z"/>
      <path class="cls-123" d="M242.86,232.24c-.87-.85-2.51-.71-2.84-2.23,.74-.22,1.77,.18,2.08-.98-.14-1.35-.06-2.69-.05-4.04-.43-.48-.83-1.35-1.28-1.38-6.35-.37-5.51-4.52-4.53-9.45,1.07,2.87,1.72,5.26,4.51,6.27,2.8,1.02,4.74-.68,6.98-1.44,1.85-.62,3.58-1.59,5.36-2.4-.11,2.76-3.1,3.17-4.19,5.12-.32,1.33-1.28,2.16-2.27,2.98-.42,.48-.77,1.02-1.06,1.59-.7,2.08,.08,4.83-2.7,5.96Z"/>
      <path class="cls-124" d="M224.74,235.81c-1.08-2.07,.39-3.5,1.26-5.08l.4-.24,.41,.23c1.57,1.28,4.79-.04,5.08,3.24-2.38,.62-4.77,1.23-7.15,1.85Z"/>
      <path class="cls-22" d="M228.19,202.91c.29,0,.58,.03,.87,.09,.04,.57,.09,1.13,.13,1.7,1.4,1.6,.19,3.63,.87,5.35v3.83c-2.67-4.03-1.58-7.6-1.87-10.97Z"/>
      <path class="cls-21" d="M230.06,210.04c-1.73-1.55-.87-3.52-.87-5.35,.68-.18,1.35-.37,2.03-.55-.39,1.97-.77,3.93-1.16,5.9Z"/>
      <path class="cls-41" d="M226.8,230.72l-.4,.08s-.41-.07-.4-.07c.01-2.59,.03-5.18,.04-7.77,2.97,2.32,0,5.23,.77,7.77Z"/>
      <path class="cls-71" d="M242.04,224.99c1.62,1.33,1.06,2.68,.05,4.04-2.81-1.31-.82-2.69-.05-4.04Z"/>
      <path class="cls-14" d="M232,165.03c-.24,1.71,.52,3.54-.77,5.66-1.54-2.24-3.11-4.11-4.23-6.22-2.67-5.04-6.9-6.73-12.34-6.46-3.31,.17-6.63,.01-9.94,.03-9.43,.07-12.82,3.05-13.62,12.39-.19,2.21-.22,4.26-2.14,5.73-2.28-.09-1.82-2.28-2.67-3.46-.38-.81-.72-1.64-.77-2.56,.23-1.75-.15-3.37-1.01-4.9-.21-.38-.35-.78-.44-1.2-.35-3-.71-6-1.06-9,2.41-7.8,9.48-4.88,14.5-5.76,5.78-1.01,11.89-.5,17.82-.16,5.2,.3,9.47-.52,12.05-5.62,.68-1.35,2.17-2.24,3.71-1.98,1.2,.2,.81,1.59,.91,2.53-.86,.76-1.89,1.4-2.57,2.29-7.27,9.57-7.14,10.44,2.57,18.7Z"/>
      <path class="cls-19" d="M232.83,144.04v3.87c-.21,.02-.42,.04-.63,.05l-.2-3.92c.28,0,.55,0,.83,0Z"/>
      <path class="cls-39" d="M303.98,144.04c2.54,.24,3.75,2.14,5,4-2.54-.24-3.75-2.14-5-4Z"/>
      <path class="cls-39" d="M322.97,159.03c2.03,.08,3.12,1.4,4,3-2.02-.08-3.12-1.4-4-3Z"/>
      <path class="cls-81" d="M241,152.03c0-2,0-4,0-6,7.66,7.94,7.04,7.81,.48,15.22-.97-1.7-.26-3.52-.48-5.23v-4Z"/>
      <path class="cls-28" d="M297.86,149.29c.25,1.38-.22,2.92,.96,4.08,.73,3.55,1.46,7.09,2.19,10.64,.69,1.12,.57,1.94-.82,2.33-.52-.07-1.02-.21-1.5-.42-3.08-1.47-6.86,.67-9.72-1.89,1.89-7.84,3.78-15.68,5.96-24.74,1.24,4.24,2.09,7.12,2.94,10Z"/>
      <path class="cls-125" d="M288.96,164.03c3.63,.65,7.48-1.07,10.98,1.02-1.21,1.13-2.73,1.24-4.26,1.26-.47,.03-.95,.02-1.41,.01-3.64-1.06-3.86,2.78-5.85,4.09-.47,.06-.89-.06-1.25-.37-1.4-1.63,.11-3.34-.16-5.01,.37-.24,.73-.48,1.1-.71,.28-.12,.56-.22,.85-.29Z"/>
      <path class="cls-4" d="M163.03,320.97c4.64,3.24,9.91,5.16,15.13,7.21,2.6,1.02,5.12,2.36,6.84,4.74-2.33,0-4.65,0-6.98,0-4.86-2.61-10.49-3.57-14.99-6.96,0-1.66,0-3.33,0-4.99Z"/>
      <path class="cls-10" d="M163.03,325.96c5.35,1.56,10.92,2.65,14.99,6.96-4.99,0-9.98,0-14.98,0,0-2.32,0-4.64-.01-6.96Z"/>
      <path class="cls-34" d="M246.06,224.17c.94-.82,1.88-1.64,2.82-2.46,.14,1.03,.72,1.71,1.43,2.49,4.16,4.59,6.78,9.57,2.76,15.6-1.65,2.47,.55,4.85-.09,7.25-1.04-2.59-2.07-5.19-3.11-7.78-.21-.43-.3-.88-.29-1.35,1.7-3.72,.51-6.93-1.68-10.02-.8-1.13-2.32-1.95-1.84-3.73Z"/>
      <path class="cls-51" d="M306.87,182.25c4.34,.41,3.89-3.17,3.89-5.43,0-3.41-.9-6.82-1.47-10.23-.31-1.82-.85-3.73,.99-4.99,1.8-1.24,3.51-.22,5.11,.68,13.21,7.44,16.9,15.99,14.52,31.58-1.41,9.26-1.96,18.66-2.95,27.99-.67,6.39-1.22,12.8-2.21,19.14-.88,5.64-4,7.56-8.78,6.01-1.16-2.52,.97-3.64,2.31-4.85,1.48-1.34,2.51-2.61,1.94-4.69-.01-.76,.14-1.47,.45-2.16,1.26-10,2.69-19.97,3.97-29.96,.78-6.08,.86-12.22,1.7-18.3,1.08-7.87-1.74-13.63-7.7-16.96-2.71-1.52-4.06-.82-4.23,2.21-.23,4.14,.14,8.29-.23,12.43-.3,3.41-1.22,6.42-5.5,6.54-2.49-.96-1.76-3.48-2.58-5.26-.23-1.35-.28-2.66,.76-3.75Z"/>
      <path class="cls-86" d="M321.04,238.02c2.11,2.4-.05,3.55-1.54,4.63-1.61,1.16-3.41,2.03-3.52,4.35-.38-.43-.76-.85-1.14-1.28,.64-2.68,2.79-4.46,4.05-6.78,.65-.46,.95-1.74,2.15-.93Z"/>
      <path class="cls-102" d="M302.92,171.04c1.49,2.09,1.8,4.52,2,6.98-.45,.27-.9,.27-1.34-.03-1.51-2.03-2.63-4.17-1.92-6.82,.38-.39,.8-.43,1.26-.13Z"/>
      <path class="cls-103" d="M302.92,171.04c-.22-.02-.44-.02-.66-.02-1.04-.23-1.5-1.07-1.98-1.89-.38-1.08-1.17-2.14-.11-3.27l.84-1.85c1.36,2.15,2.13,4.46,1.92,7.03Z"/>
      <path class="cls-100" d="M304.14,178.02c.26,0,.52,0,.78,0,.38,1.29,.76,2.58,1.14,3.86,.27,1.92-.95,1.59-2.09,1.4-.92-.85-1.12-1.94-1.05-3.12,.13-.87,.42-1.66,1.22-2.15Z"/>
      <path class="cls-129" d="M304.23,183c.81-.04,1.46-.34,1.83-1.11,.27,.12,.53,.24,.8,.36,.03,1.26,.07,2.52,.1,3.78-.4,.26-.81,.3-1.26,.13-.8-.91-2.46-1.42-1.48-3.16Z"/>
      <path class="cls-97" d="M318.74,238.7c-8.41-1.21-16.87-.36-25.3-.55-7.8-.17-15.61-.11-23.42-.15l-.08,.04c-.31-.66-.16-1.19,.44-1.6,5.16-1.91,10.53-.73,15.8-.97,5.73-.26,6.13-.54,6.23-6.37,.24-13.29-.49-26.59,.45-39.87,1.42-5.42,.41-10.95,.72-16.41,.13-2.29-.4-4.7,1.15-6.76,.62-.43,1.18-.36,1.68,.21,1.96,4.61,1.17,9.48,1.1,14.22-.18,11.43-.11,22.86-.04,34.29-.11,7.05,.76,14.17-.71,20.88,7.11,.33,14.89-1.8,22.42,1.3,.22,.67,.08,1.25-.44,1.74Z"/>
      <path class="cls-93" d="M318.74,238.7c.09-.53,.19-1.06,.28-1.59-.72-2.08-2.66-3.98-.96-6.43,.47-.17,.95-.19,1.44-.08,1.89,1.41,2.19,3.26,1.51,5.39,0,.67,.02,1.35,.03,2.02-.72,.31-1.43,.62-2.15,.93,0,0-.14-.24-.14-.24Z"/>
      <path class="cls-37" d="M297.32,256.12c3.95-.83,7.6,.81,11.4,1.07,2.7,.18,4.53,2.12,5.07,4.82,.61,3.05-1.47,5.12-3.48,6.69-5.68,4.48-20.83,4.39-26.66,.09-2.23-1.64-3.01-3.95-2.52-6.6,.5-2.7,2.23-4.59,4.92-5.01,3.75-.58,7.45-1.84,11.26-1.06Z"/>
      <path class="cls-54" d="M246.06,224.17c2.86,2.4,4.74,5.47,5.76,8.99,.55,1.88-.35,3.54-1.81,4.84-2.01-.93-3.04-3.18-5.2-3.92-.32-.28-.64-.56-.97-.83,.82-2.64,.28-5.48,1.18-8.11,.34-.32,.68-.65,1.02-.97Z"/>
      <path class="cls-122" d="M219.07,277.83c-.28,.01-.55-.02-.82-.09-.18-3.01-1.23-6.09,.62-8.96,.29,1.67,.58,3.34,.86,5.01-1.07,1.21-.55,2.68-.66,4.04Z"/>
      <path class="cls-78" d="M244.82,234.08c2.72,0,3.87,2.08,5.2,3.92-.05,.42-.1,.84-.15,1.26-1.68-1.73-3.36-3.46-5.05-5.19Z"/>
      <path class="cls-78" d="M245.03,225.14c-.1,2.75,.52,5.6-1.18,8.11-.33-.33-.66-.67-1-1,2.74-1.75,.3-5.09,2.18-7.1Z"/>
      <path class="cls-134" d="M218.27,261.74c.19,.17,.4,.31,.63,.42,.12,1.28,.24,2.55,.37,3.83-.12,.77-.24,1.55-.35,2.32-2.03-2.01-.68-4.36-.65-6.58Z"/>
      <path class="cls-112" d="M238.74,287.98c1.66,0,3.32-.08,4.97,.02,1.25,.08,2.96-.65,3.62,.77,.64,1.38-.19,2.96-1,4.15-2.17,3.17-5.48,4.22-9.1,3.99-3.4-.22-5.84-2.13-7.18-5.3-.92-2.18-1.05-3.89,2.22-3.66,2.15,.15,4.31,.03,6.47,.03Z"/>
      <path class="cls-51" d="M194.97,199.91c0,.42,0,.84,0,1.26-.19,1.67,.87,3.19,.64,4.87,.96,1.05,.76,2.48,1.23,3.69,.85,2.07,.71,4.49,2.21,6.33l-.06-.11c.55,1.57,.2,3.3,.88,4.85,.4,1.04,.65,2.12,.75,3.23,1.04,1.18,.79,2.69,1.04,4.07,1.21,2.06,.92,4.52,1.84,6.66-.02,1.11,.36,2.41-1.33,2.7-6.81,.03-13.62-.06-20.42,.05-2.32,.04-3.25-.68-3.2-3.11,.32-15.92-.33-31.85,.35-47.76,.67-1.62,1.44-2.76,2.84-.51q2.7,4.36,6.82,1.14c.39-.3,.84-.46,1.34-.49,.88,.61,1.05,1.55,1.13,2.52,.2,1.85,1.59,3.37,1.49,5.31,.66,1.83,.91,3.86,2.46,5.29Z"/>
      <path class="cls-125" d="M199.06,216.06c-2.68-1.24-1.85-4.11-2.84-6.14,.26-.39,.31-.98,.92-1.07,1.18,2.26,1.78,4.67,1.92,7.21Z"/>
      <path class="cls-95" d="M202.88,234.05c-.59-2.02-1.19-4.03-1.78-6.05,.33-.49,.69-.48,1.07-.05,.61,2.02,1.21,4.03,1.82,6.05-.35,.55-.71,.57-1.1,.04Z"/>
      <path class="cls-96" d="M192.24,194.99c-.62-1.68-1.25-3.36-1.87-5.04,.19-.71,.56-1.12,1.36-.86,.41,.69,.81,1.38,1.22,2.07,.06,1.28,.12,2.55,.18,3.83-.3,.31-.6,.3-.89,0Z"/>
      <path class="cls-94" d="M192.24,194.99c.3,0,.59,0,.89,0,1.49,1.31,1.28,3.25,1.84,4.91-3.16-.39-1.93-3.22-2.73-4.91Z"/>
      <path class="cls-133" d="M195.24,205.99c.29-1.63-2.13-3.11-.26-4.83,.88,1.5,1.25,3.11,1.03,4.85-.27,.4-.52,.39-.76-.02Z"/>
      <path class="cls-94" d="M202.88,234.05c.37-.01,.73-.03,1.1-.04-.4,1.33,2.14,2.66,0,4l-.49,.09-.49-.09c-.35-.2-.46-.39-.33-.57,.13-.17,.25-.25,.38-.25-.06-1.05-.12-2.09-.18-3.14Z"/>
      <path class="cls-89" d="M199.25,220.93c-.34-1.65-1.09-3.27-.25-4.98,1.09,1.11,.95,2.56,1.09,3.93,.57,1.03-.02,1.14-.84,1.05Z"/>
      <path class="cls-94" d="M202.17,227.95c-.36,.02-.71,.03-1.07,.05-.35-1.33-.7-2.66-1.05-4,.35-.55,.74-.57,1.15-.06,.83,1.21,1.03,2.58,.97,4.01Z"/>
      <path class="cls-92" d="M201.2,223.94c-.38,.02-.76,.04-1.15,.06-.27-1.02-.54-2.05-.81-3.07,.28-.35,.56-.7,.84-1.05,1,1.18,.95,2.65,1.11,4.06Z"/>
      <path class="cls-131" d="M195.24,205.99c.25,0,.51,0,.76,.02,1.26,.59,.94,1.81,1.14,2.83-.31,.36-.61,.72-.92,1.07-.33-1.31-.65-2.62-.98-3.93Z"/>
      <path class="cls-68" d="M146.04,189.02c-1.76-11.93,4.56-19.6,13.35-26.3,3.94-3,7.54-6.38,12.02-8.66,2.34-1.19,2.78-.24,2.46,1.66-.47,2.76-1.24,5.46-1.88,8.19,.5,.58,1.33,.83,1.63,1.62,.28,1.47,.03,2.65-1.69,2.99-.55-.03-1.02-.24-1.4-.63-2.18-3.88-4.95-3.58-8.35-1.51-8.41,5.13-12.22,12.25-10.76,22.21,1.47,10.03,1.45,20.22,3.01,30.25,.46,2.95,1.74,5.75,1.54,8.81,.21,1.7-.16,3.34-.61,4.96-.28,1.62-1.56,2.99-1.25,4.77,0,.2,0,.41,0,.61,1.63,4.4,5.62,7.46,6.92,12.06-3.52,2.81-6,2.27-7.41-2.14-1.2-3.75-2.05-7.69-2.45-11.6-.91-9.04-.73-18.24-2.37-27.12-1.24-6.71,.98-13.86-2.76-20.16Z"/>
      <path class="cls-125" d="M203.07,237.19c-.03,.27-.05,.55-.05,.82-16.3,0-32.6,0-48.91-.01l-.25,.12c-.22-.67-.05-1.22,.52-1.64,5.16-1.98,10.54-.76,15.82-1.01,5.76-.27,6.14-.54,6.26-6.36,.27-13.31-.54-26.64,.45-39.94,1.43-5.51,.4-11.12,.73-16.68,.13-2.25-.43-4.65,1.36-6.57,.94-.01,1.72,.46,1.81,1.32,.63,5.97,1.74,11.97-.72,17.81-.07,16.48-.06,32.97-.3,49.45-.04,2.49,.88,2.7,2.8,2.69,6.83-.05,13.66,0,20.48,0Z"/>
      <path class="cls-83" d="M182.35,254.99c2.99,0,5.99-.01,8.98,0,4.75,.03,10.02,3.3,10.63,6.58,.5,2.7-3.34,9.3-6.9,10.13-8.95,2.09-18.14,2.8-26.84-.82-3.74-1.55-6.28-5.5-5.54-9.68,.74-4.21,4.63-5.88,8.7-6.15,3.64-.24,7.32-.05,10.97-.05v-.02Z"/>
      <path class="cls-93" d="M179,166.08c-.44,7.64,.99,15.35-.81,22.94-2.35-2.16-1.23-5.04-1.6-7.61,.03-3.25-.05-6.51,.04-9.76,.09-2.97-1.03-5-3.62-6.3-.69-.24-1.03-.72-1.03-1.44,.33-.12,.64-.08,.92,.13,3.72,0,7.45,0,11.17,0,.33-.06,.63,0,.92,.17,.33,.42,.31,.82-.05,1.21-.39,.26-.82,.45-1.28,.56-1.54,.67-3.12-.67-4.66,.1Z"/>
      <path class="cls-126" d="M287.17,170.04c.25,0,.5-.01,.75-.02,1.45,2.95,1.31,5.47-1.96,7.12-.78-.44-.86-1.21-.91-1.98,.71-1.71,1.42-3.41,2.12-5.12Z"/>
      <path class="cls-86" d="M294.12,188.94c-.05,14.4-.23,28.8-.04,43.2,.05,3.95-1.08,5.19-5,4.97-6.27-.36-12.57-.22-18.86-.29-.71-1.43,.25-2.66,.46-3.98,.56-2.22,1.44-4.36,1.87-6.62,.35-1.36,.36-2.77,.67-4.13,.34-1.14,.8-2.24,1.03-3.41,.84-2.55,1.46-5.17,2.27-7.73,.6-2.13,.17-4.69,2.52-6.09v-.49c-1.23-2.62,1.31-4.74,.96-7.24,0-1.55,1.01-2.75,1.42-4.16,.22-2.16,.67-4.26,1.7-6.2,.58-1.52,.32-3.37,1.77-4.55,.03-.74,.06-1.47,.09-2.21,2.3,0,2.05,1.85,1.98,3.14-.18,3.5,1.66,5.87,3.96,8.25,2.04-1.35-.54-5.41,3.34-5.34,.26,.98,.32,1.94-.14,2.87Z"/>
      <path class="cls-79" d="M293.84,186.03c-1.83,2.11-.16,4.8-1.42,7.56-3.98-2.04-6.71-4.7-6.57-9.5,.04-1.44,.57-2.95-.87-4.07,.32-.96,.65-1.92,.97-2.88,1.49-2.15,1.71-4.64,1.96-7.12,1.33-2.4,1.49-6.21,5.9-4.89,1.09,6.97,1.04,13.93,.03,20.9Z"/>
      <path class="cls-94" d="M276.78,211.01c.37,2.9-.68,5.49-1.75,8.07-.84,.02-1.41-.44-1.88-1.07,.89-2.42,.97-5.21,3.24-6.99h.4Z"/>
      <path class="cls-93" d="M272.96,226c.2,2.61-.69,4.95-1.81,7.24-.65-.1-.69-.69-.9-1.14,.25-2.17,.59-4.31,1.99-6.1l.36-.28,.36,.28Z"/>
      <path class="cls-94" d="M276.78,211.01s-.4,.01-.4,.01c-.16-2.5-1.36-5.46,2.65-6.16-1.03,1.95-.68,4.4-2.26,6.15Z"/>
      <path class="cls-99" d="M283.72,186.91c-.66,2.05-1.31,4.09-1.97,6.14-.21,0-.43,0-.64,0-.27-2.61,.08-5.07,1.7-7.23,.64,.08,.68,.66,.9,1.09Z"/>
      <path class="cls-94" d="M280.92,197c-.63,2.46-1.26,4.91-1.88,7.37-2.12-2.85,.75-5.5,.34-8.29,.79-.16,1.19,.33,1.54,.91Z"/>
      <path class="cls-129" d="M273.15,218.01c.81,.03,1.5,.28,1.88,1.07-.27,1-.53,2-.8,3-.72,.51-1.43,.53-2.12-.07,.35-1.33,.69-2.67,1.04-4Z"/>
      <path class="cls-105" d="M272.11,222.02c.71,.02,1.41,.04,2.12,.07-.37,1.32,.06,2.9-1.27,3.92,0,0-.36,0-.36,0,0,0-.36,0-.36,0-1.12-1.29-.19-2.65-.14-3.98Z"/>
      <path class="cls-130" d="M270.26,232.1c.3,.38,.6,.76,.9,1.14-.31,1.2-.63,2.39-.94,3.59-.09,.41-.18,.81-.27,1.22-2.24-2.11,.12-3.97,.31-5.95Z"/>
      <path class="cls-89" d="M280.92,197c-.52-.3-1.03-.61-1.54-.91,.1-1.28,.84-2.2,1.74-3.03,.21,0,.43,0,.64,0-.28,1.32-.56,2.63-.84,3.95Z"/>
      <path class="cls-106" d="M283.72,186.91c-.3-.36-.6-.72-.9-1.09,.45-1.34-.51-3.49,2.08-3.59-.39,1.56-.78,3.12-1.17,4.68Z"/>
      <path class="cls-128" d="M191.73,189.1c-.46,.29-.91,.57-1.37,.86-.17-.96-.33-1.92-.5-2.87-1.45-1.27-2-2.8-1.34-4.67,.31-.45,.71-.58,1.23-.39l1.98,7.07Z"/>
      <path class="cls-90" d="M189.76,182.02c-.17,0-.33-.02-.5-.04-2.69,.34-2.65-1.61-2.84-3.38,.37-1.13,1.07-1.75,2.33-1.52,.34,1.65,.67,3.29,1.01,4.94Z"/>
      <path class="cls-91" d="M188.75,177.09c-.5,.31-.99,.63-1.49,.94-.48-.23-.82-.58-1.03-1.06-.16-1.83-1.86-3.87,.73-5.32,.67,1.5,1.34,3.01,2.01,4.51-.08,.31-.15,.62-.21,.94Z"/>
      <path class="cls-39" d="M186.95,171.64c-1.01,1.81,.44,3.57,.1,5.36-.95,.98-.31,2.23-.55,3.32-.46,2.1-2.01,3.14-3.96,3.14-2.6,0-1.96-2.19-1.99-3.72-.07-3.49,.2-7-.09-10.47-.23-2.85,1.14-3.73,3.53-3.99,.33-.05,.66-.1,.99-.15,.66,1.7,1.59,3.36,1.01,5.3,.32,.4,.64,.8,.95,1.2Z"/>
      <path class="cls-127" d="M186,170.44c-.82-1.68-1.4-3.4-1.01-5.3,0-.31,0-.62,0-.93,1.16,1.95,2.81,3.81,1,6.23Z"/>
      <path class="cls-10" d="M295.97,166.03c-.3-.07-.61-.12-.92-.14-.27-.26-.32-.44-.16-.54,.09-.05,.22-.08,.4-.08l4.64-.21c.13,.25,.21,.52,.24,.81,.27,1.04,.55,2.08,.82,3.12,.55,1.07,1,2.29-.32,2.98-1.01,.53-1.79-.52-2.6-1.06-1.76-1.17-1.17-3.35-2.11-4.87Z"/>
      <path class="cls-117" d="M295.29,165.27c-.15,.18-.23,.39-.24,.62-.02,6.11-.01,12.23-.1,18.34-.02,1.59,.54,3.34-.84,4.71-.09-.97-.18-1.94-.27-2.91,0-6.97-.02-13.93-.03-20.9,.49,.05,.98,.09,1.48,.14Z"/>
      <path class="cls-86" d="M321.01,236c-1.2-1.45-.55-3.67-2.07-4.98-1.63-1.94-1.74-4.49-2.69-6.7-.41-1.34-.56-2.75-1.03-4.08-.43-1.53-.94-3.04-1.32-4.59-.13-.43-.22-.87-.31-1.31-.31-1.29-.66-2.58-.95-3.88-.36-1.5-.88-2.95-1.39-4.41-.22-.63-.37-1.27-.5-1.93-.28-1.5-.76-2.96-1.06-4.46-.37-1.67-.94-3.27-1.54-4.86-.31-.81-.6-1.62-.54-2.5,.19-.71,.81-.95,1.36-1.28,3.46-1.63,4.09-4.63,4.02-8.05-.08-3.83-.02-7.66-.01-11.49,0-1.67-.14-3.46,1.87-4.19,1.59-.59,2.74,.31,4.08,1.13,8.23,5.06,9.76,12.14,8.51,21.41-1.38,10.29-1.92,20.73-3.47,31.04-.66,4.4-1.69,8.76-1.09,13.27,.16,1.22-.76,1.73-1.87,1.86Z"/>
      <path class="cls-98" d="M308.97,191.02c-.3,.48-.6,.96-.9,1.43-2.62-.22-3.1-2.06-3.17-4.2,.09-.87,.37-1.66,1.09-2.23,.33,0,.66,0,.98,0,1.61,1.29,.54,3.65,2,5Z"/>
      <path class="cls-65" d="M295.97,166.03c1.34,1.47,1.61,3.81,3.74,4.63,2.31,.89,.78-1.18,1.29-1.68,.42,.68,.85,1.36,1.27,2.04,.04,2.49,1.03,4.73,1.88,7-.1,.68-.2,1.36-.29,2.04-.4,.72-.59,1.77-1.23,2.09-4.74,2.42-4.61,6.61-4.17,10.97,.13,5.57,.19,11.13,0,16.68-.07,1.94,.51,4.44-2.39,5.19-.03-16.32-.06-32.64-.09-48.96Z"/>
      <path class="cls-23" d="M296.98,192.02c-1.62-6.23,1.89-9.51,6.87-11.95,.13,.98,.25,1.95,.38,2.93,.48,1.07,1.84,1.63,1.76,3.03,0,.66,.02,1.32,.03,1.98-2.32,4.57-4.48,5.53-9.04,4.02Z"/>
      <path class="cls-51" d="M296.98,192.02c3.74,.3,6.57-1.44,9.04-4.02-.36,1.97,.66,3.3,2.06,4.45,.31,.42,.62,.83,.94,1.25-.51,2.24,.82,4.11,1.26,6.16,.25,1.43,.3,2.95,1.61,3.95,.03,.66,.06,1.33,.09,1.99-.09,1.82,.77,3.4,1.3,5.06,.15,1.25,.28,2.52,1.68,3.1,.01,.33,.02,.67,.03,1-1.23,2.14,1.01,3.78,.82,5.77,.62,1.28,.52,2.75,1.03,4.07,.5,2.06,1.91,3.92,1.42,6.21-.28,2.1,1.52,3.94,.76,6.09-6.64-.03-13.28-.11-19.92-.05-2.28,.02-3.48-.09-3.26-3.15,.44-6.28,.19-12.61,.22-18.92,1.99-5.42,.47-11.04,.89-16.55,.16-2.13,.03-4.28,.03-6.43Z"/>
      <path class="cls-98" d="M318.26,231.02c-.68-2.03-1.35-4.07-2.03-6.1,.23-.5,.28-1.14,.99-1.27,.89,2.38,2,4.71,1.72,7.37,0,0-.34,0-.34,0h-.34Z"/>
      <path class="cls-52" d="M297.48,258.85c2.64,.15,5.32,.07,7.91,.53,1.76,.31,3.38,1.28,3.57,3.58,.2,2.4-.95,3.72-3.03,4.52-5.46,2.1-11,2.24-16.52,.44-2.45-.8-4.53-2.43-4.31-5.37,.22-2.91,3.04-2.91,4.94-3.29,2.39-.47,4.95-.11,7.43-.11,0-.1,0-.2,0-.3Z"/>
      <path class="cls-23" d="M184,165.29c-4.82,3.55-2.59,8.7-2.9,13.23-.09,1.35-1.15,3.77,1.34,3.95,1.77,.13,3.43-1.11,3.56-3.36,.05-.86,.3-1.6,1.05-2.1,.07,.34,.13,.68,.2,1.02-.33,1.82,.86,2.88,2,3.95,.2,1.7,.41,3.4,.61,5.1-1.06,1.17-1.37,2.78-3.06,3.64-4.18,2.12-5.39,1.62-5.77-3-.08-1-.05-1.99-.95-2.67-.05-4.79-.04-9.58-.18-14.36-.05-1.55,.7-3.34-.9-4.61,1.42-1.84,3.28-.86,5-.79Z"/>
      <path class="cls-86" d="M177.86,181.1c.11,2.64,.22,5.28,.33,7.92-.05,14.29-.32,28.58-.04,42.87,.09,4.6-1.4,5.65-5.62,5.37-6.12-.41-12.28-.29-18.42-.39-.51-1.37,.73-2.48,.56-3.81,.25-1.67,1.87-3.26,.33-5.04-3.61-15.24-4.34-30.8-4.92-46.36-.25-6.58,8.64-17.3,15.11-18.43,3.26-.57,6.16,.07,5.82,4.51,.35,1.88-.37,3.61-.81,5.37-.29,1.09-.48,2.21-.97,3.23-.28,1.56-.7,3.09-1.1,4.63-.5,.59-1.15,.79-1.9,.76-3.19-1.1-3.03-4.02-3.47-6.54-.48-2.71-1.84-2.95-3.74-1.42-3,2.41-4.38,5.63-4.66,9.48-.39,5.34,.4,10.61,1.23,15.78,.95,5.96,1.12,12.04,2.66,17.91,.26,.94,.57,1.89,.12,2.51,.48-1,.16-2.45,.37-3.81,.19-1.59,.72-3.09,1.19-4.6,.78-2.26,1.46-4.53,1.46-6.96,.02-.44,.1-.86,.24-1.28,.91-1.7,1.75-3.42,2.12-5.34,.3-1.51,.76-2.98,1.06-4.5,.07-.45,.19-.88,.31-1.32,.41-1.31,.8-2.62,1.17-3.93,.67-2.46,1.3-4.94,2.24-7.32,.32-1.13,.52-2.29,.76-3.44,.44-1.09,.73-2.27,1.69-3.08,2.68,.44,2.08,2.55,1.95,4.2-.2,2.53-.15,4.89,1.91,6.77,1.9-.57,.4-3.82,3.01-3.73Z"/>
      <path class="cls-10" d="M177.86,181.1c-.19,.26-.4,.51-.58,.78-1.18,1.69,1.08,5.88-1.84,5.27-2.88-.6-4.63-4.37-3.91-8.01,.35-1.78,1.04-3.47-.34-5.09-.41-.34-.61-.78-.61-1.31,.5-1.6,.04-3.54,1.66-4.75,.89-.69,.75-1.68,.77-2.63,3.9-1.18,5.49,.08,5.09,4.3-.36,3.79-.18,7.63-.24,11.45Z"/>
      <path class="cls-125" d="M172.24,167.98c-.55,1.65,.33,3.64-1.23,5.05-.62,.59-1.23,.6-1.86,0,.7-1.74,.49-3.8,1.85-5.31,.41,.09,.82,.17,1.23,.26Z"/>
      <path class="cls-125" d="M155.01,228c.69-.13,1.96-1.38,1.61,.65-.26,1.51-.9,2.95-1.38,4.43-.41,.5-.8,.48-1.15-.07,.31-1.67,.61-3.34,.92-5.01Z"/>
      <path class="cls-93" d="M154.09,233.01c.38,.02,.76,.04,1.15,.07-.37,1.26-.75,2.52-1.12,3.78-.08,.42-.17,.84-.25,1.26-3.67-1.87,.43-3.39,.23-5.11Z"/>
      <path class="cls-37" d="M182.04,272.06c-4.83-.64-9.47-1.01-13.68-4.56-2.63-2.22-1.59-4.45-1.84-6.52-.26-2.16,2.26-3.21,4.14-3.64,7.15-1.62,14.37-2.23,21.58-.31,3.08,.82,6.58,1.78,6.6,5.66,.03,4.06-2.57,6.71-6.56,7.65-3.36,.78-6.69,1.88-10.25,1.73Z"/>
      <path class="cls-4" d="M292.96,180.44c-2.4-1.88-2.13-3.95-1.86-5.83,.27-1.91,1.39-3.72-.41-5.54-.82-.84-.48-2.02,.62-2.42,1.43-.51,1.62,.69,1.63,1.7,.04,3.88,.01,7.75,.01,12.1Z"/>
      <path class="cls-93" d="M309.86,200.22c-.67-2.12-2.3-4.12-.85-6.52,.55,1.79,1.1,3.59,1.65,5.38-.09,.5-.36,.88-.8,1.13Z"/>
      <path class="cls-94" d="M312.81,211.21c-.46-1.77-2.81-3.25-.84-5.4,1.57,1.03,1.05,2.92,1.77,4.31-.24,.42-.29,1-.93,1.09Z"/>
      <path class="cls-90" d="M309.86,200.22c.27-.38,.53-.76,.8-1.13,.41,1.58,.82,3.15,1.22,4.73-2.52-.16-1.65-2.22-2.02-3.59Z"/>
      <path class="cls-133" d="M315.19,220.9c.45-2-2.68-3.86-.21-5.93,.36,1.64,.72,3.28,1.08,4.92,.55,1.05-.04,1.14-.87,1.01Z"/>
      <path class="cls-126" d="M315.19,220.9c.29-.34,.58-.67,.87-1.01,1.19,1,.86,2.48,1.16,3.76-.33,.42-.66,.85-.99,1.27-.34-1.34-.69-2.68-1.03-4.02Z"/>
      <path class="cls-135" d="M312.81,211.21c.31-.36,.62-.73,.93-1.09,.4,1.29,.81,2.57,1.21,3.86-2.51,.46-1.74-1.6-2.14-2.77Z"/>
      <path class="cls-86" d="M166.03,192.03c-.02,.37-.03,.74-.05,1.11-1.14,1.17-1.47,2.68-1.74,4.21-1.08,1.76-1.07,3.94-2.22,5.66,0,.28,0,.57,0,.85-.03,2.57-1.27,4.88-1.64,7.37-.29,1.25-1.02,2.37-1,3.71-.33,.8-.62,1.62-1.47,2.06-.65-.04-1.81,2.19-1.78,.21,.19-11.61-3.77-22.8-3.17-34.44,.26-4.93,2.54-8.59,6.36-11.2,2.32-1.59,4.81-1.76,4.72,2.47-.06,2.74-.29,5.72,3.09,7.02,1.24,1.94-.56,3.74-.25,5.64-.55,1.73-1.52,3.4-.87,5.33Z"/>
      <path class="cls-104" d="M166.3,187.09c-.67-2.14,.41-4.04,.86-6.02,.3-.35,.61-.7,.91-1.05,.29-.26,.58-.26,.88,0,.19,2.89-.71,5.53-1.86,8.12-.44-.21-.71-.55-.79-1.04Z"/>
      <path class="cls-89" d="M160,211.02c-.02-2.58,.97-4.88,2.03-7.15,1.25,2.65-.15,4.86-1.17,7.14-.28,.49-.56,.49-.86,.02Z"/>
      <path class="cls-90" d="M162.03,203.01c-.12-2.28,.15-4.44,1.86-6.17,.45,.21,.73,.56,.85,1.05-.87,1.73,.05,4.4-2.71,5.12Z"/>
      <path class="cls-98" d="M157.93,217.01c.35-.7,.69-1.4,1.04-2.1,.42,.24,.72,.58,.87,1.04-.85,1.84-.21,4.25-2.49,5.98,.22-1.87,.4-3.4,.58-4.93Z"/>
      <path class="cls-101" d="M168.95,180.01h-.44s-.44,0-.44,0c-.79-1.36,.25-2.63,.22-3.95,1.17-.73,1.91-.67,1.75,.98-.14,1.07,.15,2.3-1.1,2.96Z"/>
      <path class="cls-91" d="M170.04,177.04c-.36-.72-1-.96-1.75-.98,.29-1.01,.58-2.02,.87-3.04,.62,0,1.24,0,1.86,0,.06,.34,.11,.68,.17,1.02-.35,1.01-.08,2.26-1.15,3Z"/>
      <path class="cls-131" d="M166.3,187.09c.26,.35,.53,.69,.79,1.04,.02,1.4-.2,2.74-1.05,3.9-1.65-1.74-1.08-3.36,.26-4.94Z"/>
      <path class="cls-133" d="M164.74,197.89c-.28-.35-.57-.7-.85-1.05,.29-1.46-.25-3.4,2.09-3.7-.41,1.58-.83,3.17-1.24,4.75Z"/>
      <path class="cls-105" d="M159.85,215.95c-.29-.35-.58-.7-.87-1.04,.34-1.3,.68-2.59,1.03-3.89,.29,0,.57-.01,.86-.02-.34,1.65-.67,3.3-1.01,4.94Z"/>
      <path class="cls-45" d="M176.63,174.5c.39,1.68,.75,2.68-.18,3.62-.61-1.08-.58-2.09,.18-3.62Z"/>
      <path class="cls-52" d="M182.87,258.98c2.31,.23,4.8-.33,7.26,.54,1.66,.58,3.06,1.23,3.61,3.04,.61,2.02-.82,3.09-2.03,4.19-3.34,3.02-16.05,3.14-19.48,.24-2.17-1.84-1.54-5.64,1.15-6.93,2.99-1.44,6.19-.97,9.49-1.07Z"/>
    </g>
  </g>
</svg>